<?xml version="1.0" encoding="UTF-8"?>
<svg width="18px" height="17px" viewBox="0 0 18 17" version="1.1" xmlns="http://www.w3.org/2000/svg" xmlns:xlink="http://www.w3.org/1999/xlink">
    <!-- Generator: Sketch 52.6 (67491) - http://www.bohemiancoding.com/sketch -->
    <title>icon / history</title>
    <desc>Created with Sketch.</desc>
    <g id="Page-2" stroke="none" stroke-width="1" fill="none" fill-rule="evenodd">
        <g id="Menu---Ticket-1-day---Mobile" transform="translate(-340.000000, -12.000000)" fill="#F4D036">
            <g id="icon-/-history" transform="translate(334.000000, 6.000000)">
                <g id="np_history_358012_F0001B" transform="translate(6.000000, 6.600000)">
                    <path d="M9.42586364,3.90313636 C9.17018182,3.90313636 9,4.07412409 9,4.32979773 L9,8.59088864 C9,8.76107659 9.08549386,8.93207045 9.25568182,8.93207045 L12.3238636,10.5516614 C12.4093575,10.5516614 12.4940516,10.6371552 12.4940516,10.6371552 C12.6642395,10.6371552 12.8352334,10.5516614 12.8352334,10.3814734 C12.9207273,10.2112855 12.8352334,9.95560977 12.6650455,9.78460977 L9.85254545,8.33522114 L9.85254545,4.32981205 C9.85254545,4.07413023 9.68155773,3.90315068 9.42588409,3.90315068 L9.42586364,3.90313636 Z" id="Path"></path>
                    <path d="M9.85254545,0.0679090909 C5.50595455,0.0679090909 2.01190909,3.47727273 1.75622727,7.73836364 L0.477020455,7.73836364 C0.0511568182,7.73836364 -0.119843182,7.99404545 0.221338636,8.33522727 L2.09661136,10.3806818 C2.43779318,10.7218636 2.94915682,10.7218636 3.20483864,10.3806818 L5.08011136,8.33522727 C5.33499545,7.99404545 5.16480545,7.73836364 4.73892955,7.73836364 L3.46052045,7.73836364 C3.71620227,4.4145 6.44320227,1.773 9.85256591,1.773 C13.3466114,1.773 16.2446114,4.671 16.2446114,8.16504545 C16.2446114,11.6590909 13.3466114,14.5570909 9.85256591,14.5570909 C8.48865682,14.5570909 7.21024773,14.1312273 6.10283864,13.3641818 C5.76165682,13.1085 5.16561136,13.1939939 4.90992955,13.5343698 C4.65424773,13.8755516 4.73974159,14.471597 5.0801175,14.7272789 C6.44322886,15.7500061 8.14748114,16.2613698 9.85257205,16.2613698 C14.284663,16.2613698 17.9488902,12.5963243 17.9488902,8.16505159 C17.9488902,3.73296068 14.2838448,0.0679152273 9.85257205,0.0679152273 L9.85254545,0.0679090909 Z" id="Path"></path>
                </g>
            </g>
        </g>
    </g>
</svg>