<?xml version="1.0" encoding="UTF-8"?>
<svg width="59px" height="40px" viewBox="0 0 59 40" version="1.1" xmlns="http://www.w3.org/2000/svg" xmlns:xlink="http://www.w3.org/1999/xlink">
    <!-- Generator: Sketch 52.6 (67491) - http://www.bohemiancoding.com/sketch -->
    <title>barcode</title>
    <desc>Created with Sketch.</desc>
    <g id="Page-1" stroke="none" stroke-width="1" fill="none" fill-rule="evenodd">
        <g id="Page---Home-page-INFORMATION-TICKET" transform="translate(-16.000000, -354.000000)" fill="#646263">
            <g id="barcode" transform="translate(16.000000, 354.000000)">
                <path d="M15,29.1515409 L15,3.84845906 C15,3.38003895 14.7760417,3 14.5,3 C14.2236979,3 14,3.38003895 14,3.84845906 L14,29.1515409 C14,29.619961 14.2236979,30 14.5,30 C14.7760417,30 15,29.619961 15,29.1515409 Z" id="Path"></path>
                <path d="M11.5,3 C11.2236979,3 11,3.38003895 11,3.84845906 L11,29.1515409 C11,29.619961 11.2236979,30 11.5,30 C11.7760417,30 12,29.619961 12,29.1515409 L12,3.84845906 C12,3.38003895 11.7760417,3 11.5,3 Z" id="Path"></path>
                <path d="M27.5,30 C27.7760417,30 28,29.619961 28,29.1515409 L28,3.84845906 C28,3.38003895 27.7760417,3 27.5,3 C27.2236979,3 27,3.38003895 27,3.84845906 L27,29.1515409 C27,29.619961 27.2236979,30 27.5,30 Z" id="Path"></path>
                <path d="M31,29.1515409 L31,3.84845906 C31,3.38003895 30.7763021,3 30.5,3 C30.2236979,3 30,3.38003895 30,3.84845906 L30,29.1515409 C30,29.619961 30.2236979,30 30.5,30 C30.7763021,30 31,29.619961 31,29.1515409 Z" id="Path"></path>
                <path d="M34,29.1660332 C34,29.6264524 34.2236979,30 34.5,30 C34.7760417,30 35,29.6264524 35,29.1660332 L35,18.8339668 C35,18.3735476 34.7760417,18 34.5,18 C34.2236979,18 34,18.3735476 34,18.8339668 L34,29.1660332 Z" id="Path"></path>
                <path d="M34.5,16 C34.7760417,16 35,15.6291136 35,15.1719745 L35,3.82802548 C35,3.37088641 34.7760417,3 34.5,3 C34.2236979,3 34,3.37088641 34,3.82802548 L34,15.1719745 C34,15.6291136 34.2236979,16 34.5,16 Z" id="Path"></path>
                <path d="M25,29.1515409 L25,3.84845906 C25,3.38003895 24.7760417,3 24.5,3 C24.2236979,3 24,3.38003895 24,3.84845906 L24,29.1515409 C24,29.619961 24.2236979,30 24.5,30 C24.7760417,30 25,29.619961 25,29.1515409 Z" id="Path"></path>
                <path d="M22,29.1515409 L22,3.84845906 C22,3.38003895 21.7760417,3 21.5,3 C21.2236979,3 21,3.38003895 21,3.84845906 L21,29.1515409 C21,29.619961 21.2236979,30 21.5,30 C21.7760417,30 22,29.619961 22,29.1515409 Z" id="Path"></path>
                <path d="M17,29.1515409 L17,3.84845906 C17,3.38003895 16.7763021,3 16.5,3 C16.2236979,3 16,3.38003895 16,3.84845906 L16,29.1515409 C16,29.619961 16.2236979,30 16.5,30 C16.7763021,30 17,29.619961 17,29.1515409 Z" id="Path"></path>
                <path d="M20,29.1515409 L20,3.84845906 C20,3.38003895 19.7760417,3 19.5,3 C19.2236979,3 19,3.38003895 19,3.84845906 L19,29.1515409 C19,29.619961 19.2236979,30 19.5,30 C19.7760417,30 20,29.619961 20,29.1515409 Z" id="Path"></path>
                <path d="M48,29.1515409 L48,3.84845906 C48,3.38003895 47.7763021,3 47.5,3 C47.2236979,3 47,3.38003895 47,3.84845906 L47,29.1515409 C47,29.619961 47.2236979,30 47.5,30 C47.7763021,30 48,29.619961 48,29.1515409 Z" id="Path"></path>
                <path d="M47,29.1515409 L47,3.84845906 C47,3.38003895 46.7763021,3 46.5,3 C46.2236979,3 46,3.38003895 46,3.84845906 L46,29.1515409 C46,29.619961 46.2236979,30 46.5,30 C46.7763021,30 47,29.619961 47,29.1515409 Z" id="Path"></path>
                <path d="M43,29.1515409 L43,3.84845906 C43,3.38003895 42.7763021,3 42.5,3 C42.2236979,3 42,3.38003895 42,3.84845906 L42,29.1515409 C42,29.619961 42.2236979,30 42.5,30 C42.7763021,30 43,29.619961 43,29.1515409 Z" id="Path"></path>
                <path d="M38,29.1515409 L38,3.84845906 C38,3.38003895 37.7763021,3 37.5,3 C37.2239583,3 37,3.38003895 37,3.84845906 L37,29.1515409 C37,29.619961 37.2239583,30 37.5,30 C37.7763021,30 38,29.619961 38,29.1515409 Z" id="Path"></path>
                <path d="M41,29.1515409 L41,3.84845906 C41,3.38003895 40.7763021,3 40.5,3 C40.2236979,3 40,3.38003895 40,3.84845906 L40,29.1515409 C40,29.619961 40.2236979,30 40.5,30 C40.7763021,30 41,29.619961 41,29.1515409 Z" id="Path"></path>
                <path d="M8.5,30 C8.77630207,30 9,29.619961 9,29.1515409 L9,3.84845906 C9,3.38003895 8.77630207,3 8.5,3 C8.22395833,3 8,3.38003895 8,3.84845906 L8,29.1515409 C8,29.619961 8.22395833,30 8.5,30 Z" id="Path"></path>
                <path d="M3,4.85051546 L3,36.1494845 C3,36.6190399 3.22369793,37 3.5,37 C3.77630207,37 4,36.6190399 4,36.1494845 L4,4.85051546 C4,4.38096005 3.77630207,4 3.5,4 C3.22369793,4 3,4.38096005 3,4.85051546 Z" id="Path"></path>
                <path d="M54,36.1494845 L54,4.85051546 C54,4.38096005 53.7763021,4 53.5,4 C53.2236979,4 53,4.38096005 53,4.85051546 L53,36.1494845 C53,36.6190399 53.2236979,37 53.5,37 C53.7763021,37 54,36.6190399 54,36.1494845 Z" id="Path"></path>
                <path d="M53,36.1494845 L53,4.85051546 C53,4.38096005 52.7763021,4 52.5,4 C52.2239583,4 52,4.38096005 52,4.85051546 L52,36.1494845 C52,36.6190399 52.2239583,37 52.5,37 C52.7763021,37 53,36.6190399 53,36.1494845 Z" id="Path"></path>
                <path d="M8.90909091,35 L11.0909091,35 C11.5932765,35 12,34.7760417 12,34.5 C12,34.2236979 11.5932765,34 11.0909091,34 L8.90909091,34 C8.40719697,34 8,34.2236979 8,34.5 C8,34.7760417 8.40719697,35 8.90909091,35 Z" id="Path"></path>
                <path d="M12,34.5 C12,34.7760417 12.363001,35 12.8113643,35 L24.1886357,35 C24.6365764,35 25,34.7760417 25,34.5 C25,34.2236979 24.6365764,34 24.1886357,34 L12.8113643,34 C12.363001,34 12,34.2236979 12,34.5 Z" id="Path"></path>
                <path d="M27.9818461,35 L32.0181539,35 C32.5607261,35 33,34.7760417 33,34.5 C33,34.2236979 32.5607261,34 32.0181539,34 L27.9818461,34 C27.4392739,34 27,34.2236979 27,34.5 C27,34.7760417 27.4392739,35 27.9818461,35 Z" id="Path"></path>
                <path d="M32,34.5 C32,34.7760417 32.4392739,35 32.9818461,35 L37.0181539,35 C37.5607261,35 38,34.7760417 38,34.5 C38,34.2236979 37.5607261,34 37.0181539,34 L32.9818461,34 C32.4392739,34 32,34.2236979 32,34.5 Z" id="Path"></path>
                <path d="M39,34.5 C39,34.7760417 39.37987,35 39.8490691,35 L48.1509309,35 C48.62013,35 49,34.7760417 49,34.5 C49,34.2236979 48.62013,34 48.1509309,34 L39.8490691,34 C39.37987,34 39,34.2236979 39,34.5 Z" id="Path"></path>
                <path d="M58.1357422,0 L9.14177701,0 C8.66463468,0 8.2775192,0.380665722 8.2775192,0.849858357 C8.2775192,1.31905099 8.66463468,1.69971671 9.14177701,1.69971671 L57.2714844,1.69971671 L57.2714844,38.3002833 L1.72851562,38.3002833 L1.72851562,1.69971671 L5.91521451,1.69971671 C6.39280695,1.69971671 6.77947232,1.31905099 6.77947232,0.849858357 C6.77947232,0.380665722 6.39280695,0 5.91521451,0 L0.864257812,0 C0.386665373,0 0,0.380665722 0,0.849858357 L0,39.1501416 C0,39.6193343 0.386665373,40 0.864257812,40 L58.1357422,40 C58.6133346,40 59,39.6193343 59,39.1501416 L59,0.849858357 C59,0.380665722 58.6133346,0 58.1357422,0 Z" id="Path"></path>
            </g>
        </g>
    </g>
</svg>