<?xml version="1.0" encoding="UTF-8"?>
<svg width="165px" height="96px" viewBox="0 0 165 96" version="1.1" xmlns="http://www.w3.org/2000/svg" xmlns:xlink="http://www.w3.org/1999/xlink">
    <!-- Generator: Sketch 52.6 (67491) - http://www.bohemiancoding.com/sketch -->
    <title>Group 107</title>
    <desc>Created with Sketch.</desc>
    <g id="Page-1" stroke="none" stroke-width="1" fill="none" fill-rule="evenodd">
        <g id="Page---registration-form-POP-UP-Barcode" transform="translate(-105.000000, -183.000000)">
            <g id="Group-107" transform="translate(105.000000, 183.000000)">
                <polygon id="Fill-1" fill="#FFFFFF" points="0 96 165 96 165 0 0 0"></polygon>
                <polygon id="Fill-2" fill="#000000" points="8 81 10 81 10 5 8 5"></polygon>
                <polygon id="Fill-3" fill="#000000" points="12 90 13 90 13 5 12 5"></polygon>
                <polygon id="Fill-4" fill="#000000" points="15 90 16 90 16 5 15 5"></polygon>
                <polygon id="Fill-5" fill="#000000" points="68 90 69 90 69 5 68 5"></polygon>
                <polygon id="Fill-6" fill="#000000" points="71 90 72 90 72 5 71 5"></polygon>
                <polygon id="Fill-7" fill="#000000" points="130 81 131 81 131 5 130 5"></polygon>
                <polygon id="Fill-8" fill="#000000" points="117 81 118 81 118 5 117 5"></polygon>
                <polygon id="Fill-9" fill="#000000" points="120 81 121 81 121 5 120 5"></polygon>
                <polygon id="Fill-10" fill="#000000" points="122.827016 81 123.172984 81 123.172984 5 122.827016 5"></polygon>
                <polygon id="Fill-11" fill="#000000" points="105 81 106 81 106 5 105 5"></polygon>
                <polygon id="Fill-12" fill="#000000" points="108 81 109 81 109 5 108 5"></polygon>
                <polygon id="Fill-13" fill="#000000" points="110.827016 81 111.172984 81 111.172984 5 110.827016 5"></polygon>
                <polygon id="Fill-14" fill="#000000" points="25 81 27 81 27 5 25 5"></polygon>
                <polygon id="Fill-15" fill="#000000" points="20 81 23 81 23 5 20 5"></polygon>
                <polygon id="Fill-16" fill="#000000" points="43 81 45 81 45 5 43 5"></polygon>
                <polygon id="Fill-17" fill="#000000" points="56 81 59 81 59 5 56 5"></polygon>
                <polygon id="Fill-18" fill="#000000" points="88 81 91 81 91 5 88 5"></polygon>
                <polygon id="Fill-19" fill="#000000" points="101 81 103 81 103 5 101 5"></polygon>
                <polygon id="Fill-20" fill="#000000" points="97 81 98 81 98 5 97 5"></polygon>
                <polygon id="Fill-21" fill="#000000" points="93 81 94 81 94 5 93 5"></polygon>
                <polygon id="Fill-22" fill="#000000" points="143 81 146 81 146 5 143 5"></polygon>
                <polygon id="Fill-23" fill="#000000" points="156 81 158 81 158 5 156 5"></polygon>
                <polygon id="Fill-24" fill="#000000" points="152 81 153 81 153 5 152 5"></polygon>
                <polygon id="Fill-25" fill="#000000" points="148 81 149 81 149 5 148 5"></polygon>
                <polygon id="Fill-26" fill="#000000" points="34 81 35 81 35 5 34 5"></polygon>
                <polygon id="Fill-27" fill="#000000" points="39 81 40 81 40 5 39 5"></polygon>
                <polygon id="Fill-28" fill="#000000" points="36 81 37 81 37 5 36 5"></polygon>
                <polygon id="Fill-29" fill="#000000" points="50 81 51 81 51 5 50 5"></polygon>
                <polygon id="Fill-30" fill="#000000" points="53 81 54 81 54 5 53 5"></polygon>
                <polygon id="Fill-31" fill="#000000" points="47 81 48 81 48 5 47 5"></polygon>
                <polygon id="Fill-32" fill="#000000" points="31 81 32 81 32 5 31 5"></polygon>
                <polygon id="Fill-33" fill="#000000" points="28 81 29 81 29 5 28 5"></polygon>
                <polygon id="Fill-34" fill="#000000" points="113 90 115 90 115 5 113 5"></polygon>
                <polygon id="Fill-35" fill="#000000" points="66 81 67 81 67 5 66 5"></polygon>
                <polygon id="Fill-36" fill="#000000" points="75 81 77 81 77 5 75 5"></polygon>
                <polygon id="Fill-37" fill="#000000" points="80 81 81 81 81 5 80 5"></polygon>
                <polygon id="Fill-38" fill="#000000" points="74 81 75 81 75 5 74 5"></polygon>
                <polygon id="Fill-39" fill="#000000" points="82.8272208 81 83.1727792 81 83.1727792 5 82.8272208 5"></polygon>
                <polygon id="Fill-40" fill="#000000" points="84.8270161 81 85.1729839 81 85.1729839 5 84.8270161 5"></polygon>
                <polygon id="Fill-41" fill="#000000" points="62 81 64 81 64 5 62 5"></polygon>
                <polygon id="Fill-42" fill="#000000" points="125 81 127 81 127 5 125 5"></polygon>
                <polygon id="Fill-43" fill="#000000" points="134 81 136 81 136 5 134 5"></polygon>
                <polygon id="Fill-44" fill="#000000" points="139 81 140 81 140 5 139 5"></polygon>
                <polygon id="Fill-45" fill="#000000" points="140 81 141 81 141 5 140 5"></polygon>
                <polygon id="Fill-46" fill="#000000" points="19 83 22 83 22 83.3428138 19.868285 87 19.3059466 87 21.4255961 83.3875616 19 83.3875616"></polygon>
                <polygon id="Fill-47" fill="#000000" points="25.2091125 86.6127809 26 86.6127809 26 87 24 87 24 86.6127809 24.7908875 86.6127809 24.7908875 83.5726747 24.0554233 84.0952878 24.0554233 83.6515597 24.9724583 83 25.2091125 83"></polygon>
                <g id="Group-106" transform="translate(7.000000, 82.000000)" fill="#000000">
                    <path d="M23.4596407,4.13795833 L23.4596407,4.563375 L20.6822643,4.563375 L20.6822643,4.18129167 L22.1919126,2.47754167 C22.3941269,2.24670833 22.5414896,2.03920833 22.6348192,1.85379167 C22.7277396,1.66879167 22.7744044,1.483375 22.7744044,1.298375 C22.7744044,1.055875 22.7056352,0.869208333 22.5680967,0.739625 C22.4305582,0.610041667 22.2344841,0.545458333 21.9798742,0.545458333 C21.5672588,0.545458333 21.1591462,0.714208333 20.7547176,1.05170833 L20.5668302,0.662541667 C20.7367066,0.497958333 20.9512011,0.366291667 21.2094951,0.267541667 C21.4686077,0.168791667 21.7289484,0.119208333 21.9921544,0.119208333 C22.3879868,0.119208333 22.7015418,0.222958333 22.9320005,0.431291667 C23.16205,0.639208333 23.2774841,0.919625 23.2774841,1.273375 C23.2774841,1.52504167 23.2218137,1.76670833 23.1104731,1.99879167 C22.9995418,2.23129167 22.8145198,2.49170833 22.5558165,2.779625 L21.3249291,4.13795833 L23.4596407,4.13795833 Z" id="Fill-48"></path>
                    <path d="M26.8129184,2.68691667 C26.9463635,2.86858333 27.013086,3.0965 27.013086,3.37233333 C27.013086,3.75483333 26.885781,4.0565 26.6311712,4.2765 C26.3765613,4.49691667 26.0306684,4.6065 25.5939019,4.6065 C25.3151409,4.6065 25.0474321,4.55941667 24.7907755,4.46483333 C24.5337096,4.37025 24.3163497,4.2365 24.1386959,4.06358333 L24.3327234,3.67483333 C24.7330585,4.01233333 25.149358,4.18108333 25.582031,4.18108333 C25.8890365,4.18108333 26.1223607,4.11108333 26.2824129,3.97108333 C26.4420558,3.83108333 26.5218772,3.62525 26.5218772,3.354 C26.5218772,2.81483333 26.1903113,2.54525 25.5271794,2.54525 L25.0302398,2.54525 L25.0302398,2.11941667 L25.430575,2.11941667 C25.7494514,2.11941667 25.9942371,2.04733333 26.1641135,1.90316667 C26.3339898,1.759 26.4187234,1.55316667 26.4187234,1.28608333 C26.4187234,1.04691667 26.3491354,0.864 26.2095503,0.7365 C26.0699651,0.609 25.8730723,0.54525 25.6184624,0.54525 C25.205847,0.54525 24.7977343,0.714416667 24.3933058,1.0515 L24.2054184,0.66275 C24.3789788,0.493583333 24.5926547,0.361083333 24.8452179,0.264416667 C25.097781,0.16775 25.3613964,0.119416667 25.6364734,0.119416667 C26.0245283,0.119416667 26.3348085,0.22025 26.567314,0.4215 C26.7998195,0.623583333 26.9160723,0.894833333 26.9160723,1.23691667 C26.9160723,1.48775 26.8554898,1.70733333 26.7339157,1.89691667 C26.6127508,2.0865 26.4449212,2.22233333 26.230836,2.30441667 C26.4854459,2.37858333 26.6794734,2.50566667 26.8129184,2.68691667" id="Fill-50"></path>
                    <path d="M28.2680016,3.187 L29.741628,3.187 L29.741628,1.02658333 L28.2680016,3.187 Z M30.893922,3.187 L30.893922,3.607 L30.2385676,3.607 L30.2385676,4.56366667 L29.741628,4.56366667 L29.741628,3.607 L27.7526418,3.607 L27.7526418,3.22408333 L29.8325016,0.168666667 L30.2385676,0.168666667 L30.2385676,3.187 L30.893922,3.187 Z" id="Fill-52"></path>
                    <path d="M36.8393495,3.74241667 C37.0030857,3.44616667 37.0853632,2.98575 37.0853632,2.35991667 C37.0853632,1.73866667 37.0043137,1.282 36.8426242,0.989916667 C36.6805253,0.697416667 36.4259154,0.551583333 36.0783852,0.551583333 C35.7349484,0.551583333 35.4811571,0.697416667 35.3174209,0.989916667 C35.1536846,1.282 35.0718165,1.73866667 35.0718165,2.35991667 C35.0718165,2.98158333 35.1536846,3.44116667 35.3174209,3.7395 C35.4811571,4.03783333 35.7349484,4.187 36.0783852,4.187 C36.421822,4.187 36.6760225,4.03908333 36.8393495,3.74241667 M34.953517,4.042 C34.6968604,3.66158333 34.5687368,3.10283333 34.5687368,2.36616667 C34.5687368,1.6295 34.6968604,1.07116667 34.953517,0.690333333 C35.210583,0.309916667 35.5851297,0.1195 36.0783852,0.1195 C36.5716407,0.1195 36.9465967,0.309916667 37.2032533,0.690333333 C37.4599099,1.07116667 37.5884429,1.62741667 37.5884429,2.35991667 C37.5884429,3.09658333 37.4599099,3.65616667 37.2032533,4.03908333 C36.9465967,4.42158333 36.5716407,4.61283333 36.0783852,4.61283333 C35.5851297,4.61283333 35.210583,4.42283333 34.953517,4.042" id="Fill-54"></path>
                    <path d="M40.8934184,2.68691667 C41.0268635,2.86858333 41.0931766,3.0965 41.0931766,3.37233333 C41.0931766,3.75483333 40.9658717,4.0565 40.7112618,4.2765 C40.4566519,4.49691667 40.1111684,4.6065 39.6744019,4.6065 C39.3956409,4.6065 39.1279321,4.55941667 38.8712755,4.46483333 C38.6142096,4.37025 38.3968497,4.2365 38.2191959,4.06358333 L38.412814,3.67483333 C38.8131492,4.01233333 39.229858,4.18108333 39.662531,4.18108333 C39.9695365,4.18108333 40.2028607,4.11108333 40.3629129,3.97108333 C40.5221464,3.83108333 40.6023772,3.62525 40.6023772,3.354 C40.6023772,2.81483333 40.2708113,2.54525 39.6076794,2.54525 L39.1107398,2.54525 L39.1107398,2.11941667 L39.511075,2.11941667 C39.8299514,2.11941667 40.0747371,2.04733333 40.2446135,1.90316667 C40.4144898,1.759 40.4992234,1.55316667 40.4992234,1.28608333 C40.4992234,1.04691667 40.4296354,0.864 40.2900503,0.7365 C40.1504651,0.609 39.9535723,0.54525 39.6989624,0.54525 C39.286347,0.54525 38.877825,0.714416667 38.4738058,1.0515 L38.2859184,0.66275 C38.4594788,0.493583333 38.6727453,0.361083333 38.9253085,0.264416667 C39.178281,0.16775 39.4418964,0.119416667 39.7169734,0.119416667 C40.1050283,0.119416667 40.4153085,0.22025 40.647814,0.4215 C40.8803195,0.623583333 40.9961629,0.894833333 40.9961629,1.23691667 C40.9961629,1.48775 40.9359898,1.70733333 40.8144157,1.89691667 C40.6932508,2.0865 40.5254212,2.22233333 40.311336,2.30441667 C40.5659459,2.37858333 40.7599734,2.50566667 40.8934184,2.68691667" id="Fill-56"></path>
                    <polygon id="Fill-58" points="41.9303602 0.168625 44.7801898 0.168625 44.7801898 0.545291667 42.7551816 4.563625 42.2214014 4.563625 44.2345387 0.594458333 41.9303602 0.594458333"></polygon>
                    <path d="M48.1699808,2.68691667 C48.3034258,2.86858333 48.3701484,3.0965 48.3701484,3.37233333 C48.3701484,3.75483333 48.2428434,4.0565 47.9882335,4.2765 C47.7336236,4.49691667 47.3877308,4.6065 46.9509643,4.6065 C46.6722033,4.6065 46.4044945,4.55941667 46.1478379,4.46483333 C45.890772,4.37025 45.6734121,4.2365 45.4957582,4.06358333 L45.6897857,3.67483333 C46.0901209,4.01233333 46.5064203,4.18108333 46.9390934,4.18108333 C47.2460989,4.18108333 47.4794231,4.11108333 47.6394753,3.97108333 C47.7991181,3.83108333 47.8789396,3.62525 47.8789396,3.354 C47.8789396,2.81483333 47.5473736,2.54525 46.8842418,2.54525 L46.3873022,2.54525 L46.3873022,2.11941667 L46.7876374,2.11941667 C47.1065137,2.11941667 47.3512995,2.04733333 47.5211758,1.90316667 C47.6910522,1.759 47.7757857,1.55316667 47.7757857,1.28608333 C47.7757857,1.04691667 47.7061978,0.864 47.5666126,0.7365 C47.4270275,0.609 47.2301346,0.54525 46.9755247,0.54525 C46.5629093,0.54525 46.1547967,0.714416667 45.7503681,1.0515 L45.5624808,0.66275 C45.7360412,0.493583333 45.949717,0.361083333 46.2022802,0.264416667 C46.4548434,0.16775 46.7184588,0.119416667 46.9935357,0.119416667 C47.3815907,0.119416667 47.6918709,0.22025 47.9243764,0.4215 C48.1568819,0.623583333 48.2731346,0.894833333 48.2731346,1.23691667 C48.2731346,1.48775 48.2125522,1.70733333 48.090978,1.89691667 C47.9698132,2.0865 47.8019835,2.22233333 47.5878984,2.30441667 C47.8425082,2.37858333 48.0365357,2.50566667 48.1699808,2.68691667" id="Fill-60"></path>
                    <path d="M49.6252687,3.187 L51.0988951,3.187 L51.0988951,1.02658333 L49.6252687,3.187 Z M52.251189,3.187 L52.251189,3.607 L51.5958346,3.607 L51.5958346,4.56366667 L51.0988951,4.56366667 L51.0988951,3.607 L49.1099088,3.607 L49.1099088,3.22408333 L51.1897687,0.168666667 L51.5958346,0.168666667 L51.5958346,3.187 L52.251189,3.187 Z" id="Fill-62"></path>
                    <path d="M53.5761429,1.893875 C53.7476566,2.040125 53.9793434,2.12929167 54.2703846,2.162625 C54.5614258,2.12929167 54.7931126,2.040125 54.9646264,1.893875 C55.1365495,1.747625 55.222511,1.557625 55.222511,1.32304167 C55.222511,1.080125 55.1385962,0.888875 54.9707665,0.748875 C54.8029368,0.608875 54.5696126,0.538875 54.2703846,0.538875 C53.9711566,0.538875 53.7378324,0.608875 53.5700027,0.748875 C53.4021731,0.888875 53.3182582,1.080125 53.3182582,1.32304167 C53.3182582,1.557625 53.4042198,1.747625 53.5761429,1.893875 M55.0526346,3.97720833 C55.2343819,3.83720833 55.3252555,3.633875 55.3252555,3.36595833 C55.3252555,3.12304167 55.2294698,2.928875 55.037489,2.78304167 C54.8455082,2.63679167 54.5900797,2.54720833 54.2703846,2.51429167 C53.9510989,2.54720833 53.695261,2.63679167 53.5032802,2.78304167 C53.3112995,2.928875 53.2155137,3.12304167 53.2155137,3.36595833 C53.2155137,3.633875 53.3063874,3.83720833 53.4881346,3.97720833 C53.6698819,4.11720833 53.9310412,4.18720833 54.2703846,4.18720833 C54.609728,4.18720833 54.8708874,4.11720833 55.0526346,3.97720833 M55.5831401,2.708875 C55.7390989,2.900125 55.8168736,3.12970833 55.8168736,3.39679167 C55.8168736,3.771375 55.6772885,4.06679167 55.3985275,4.282625 C55.1193571,4.498875 54.7435824,4.60679167 54.2703846,4.60679167 C53.7975962,4.60679167 53.4214121,4.498875 53.1422418,4.282625 C52.8634808,4.06679167 52.7238956,3.771375 52.7238956,3.39679167 C52.7238956,3.12970833 52.8041264,2.898875 52.9637692,2.70554167 C53.1234121,2.51220833 53.3428187,2.37845833 53.6215797,2.30429167 C53.3628764,2.226375 53.1647555,2.097625 53.027217,1.918875 C52.8896786,1.73970833 52.8213187,1.528875 52.8213187,1.28595833 C52.8213187,1.05179167 52.8819011,0.846375 53.0030659,0.671375 C53.1242308,0.496791667 53.2949258,0.360958333 53.5155604,0.264291667 C53.7357857,0.167625 53.9871209,0.119291667 54.2703846,0.119291667 C54.553239,0.119291667 54.8049835,0.167625 55.0256181,0.264291667 C55.2458434,0.360958333 55.4165385,0.496791667 55.5377033,0.671375 C55.6588681,0.846375 55.7198599,1.05179167 55.7198599,1.28595833 C55.7198599,1.528875 55.6498626,1.73970833 55.5106868,1.918875 C55.3711016,2.097625 55.1758462,2.226375 54.9253297,2.30429167 C55.2081841,2.382625 55.4275907,2.51720833 55.5831401,2.708875" id="Fill-64"></path>
                    <path d="M59.370278,4.13795833 L59.370278,4.563375 L56.5929016,4.563375 L56.5929016,4.18129167 L58.10255,2.47754167 C58.3047643,2.24670833 58.4521269,2.03920833 58.5454566,1.85379167 C58.6383769,1.66879167 58.6850418,1.483375 58.6850418,1.298375 C58.6850418,1.055875 58.6162725,0.869208333 58.4787341,0.739625 C58.3411956,0.610041667 58.1451214,0.545458333 57.8905115,0.545458333 C57.4778962,0.545458333 57.0697835,0.714208333 56.6653549,1.05170833 L56.4774676,0.662541667 C56.647344,0.497958333 56.8618385,0.366291667 57.1201324,0.267541667 C57.3792451,0.168791667 57.6395857,0.119208333 57.9027918,0.119208333 C58.2986242,0.119208333 58.6121791,0.222958333 58.8426379,0.431291667 C59.0726874,0.639208333 59.1881214,0.919625 59.1881214,1.273375 C59.1881214,1.52504167 59.1324511,1.76670833 59.0211104,1.99879167 C58.9101791,2.23129167 58.7251571,2.49170833 58.4664538,2.779625 L57.2355665,4.13795833 L59.370278,4.13795833 Z" id="Fill-66"></path>
                    <path d="M2.29983956,2.230375 C2.47790275,2.049125 2.56672967,1.81495833 2.56672967,1.52704167 C2.56672967,1.23454167 2.47790275,0.997875 2.29983956,0.816625 C2.12177637,0.635791667 1.88968022,0.545375 1.60232308,0.545375 C1.32765549,0.545375 1.10538352,0.634958333 0.935507143,0.814125 C0.765630769,0.992458333 0.680897253,1.230375 0.680897253,1.52704167 C0.680897253,1.819125 0.765630769,2.05454167 0.935507143,2.23329167 C1.10538352,2.41245833 1.3297022,2.50204167 1.60887253,2.50204167 C1.89131758,2.50204167 2.12177637,2.411625 2.29983956,2.230375 M2.78490824,0.674958333 C3.06776264,1.04495833 3.20939451,1.57204167 3.20939451,2.255375 C3.20939451,2.99995833 3.06285055,3.57870833 2.76976264,3.99245833 C2.47667473,4.40620833 2.06733407,4.612875 1.54174066,4.612875 C1.29490824,4.612875 1.05380659,4.565375 0.817207692,4.47079167 C0.580608791,4.37620833 0.371435714,4.24245833 0.189688462,4.06995833 L0.383306593,3.68079167 C0.589614286,3.857875 0.785688462,3.986625 0.971938462,4.066625 C1.15777912,4.14704167 1.34566648,4.18704167 1.53560055,4.18704167 C1.90769121,4.18704167 2.19586703,4.01829167 2.40012802,3.68079167 C2.60397967,3.34370833 2.70631484,2.870375 2.70631484,2.26120833 L2.70631484,2.18079167 C2.61339451,2.411625 2.46152912,2.59370833 2.25112802,2.72704167 C2.04113626,2.86120833 1.80044396,2.927875 1.52986978,2.927875 C1.26707308,2.927875 1.03456758,2.869125 0.832353297,2.75204167 C0.630139011,2.63454167 0.472542857,2.46995833 0.359155495,2.257875 C0.246177473,2.046625 0.189688462,1.80454167 0.189688462,1.532875 C0.189688462,1.26120833 0.249042857,1.01870833 0.36857033,0.804541667 C0.487688462,0.590375 0.652652747,0.422875 0.862644505,0.301208333 C1.07263626,0.179958333 1.31128187,0.119541667 1.57817198,0.119541667 C2.09967198,0.119541667 2.50205385,0.304541667 2.78490824,0.674958333" id="Fill-68"></path>
                    <path d="M70.1944321,2.68733333 C70.3278772,2.86858333 70.3941904,3.0965 70.3941904,3.37275 C70.3941904,3.75525 70.2668854,4.0565 70.0122755,4.2765 C69.7576657,4.49691667 69.4121821,4.60691667 68.9754157,4.60691667 C68.6966547,4.60691667 68.4285365,4.55983333 68.1718799,4.46483333 C67.9152234,4.37025 67.6978635,4.23691667 67.5198003,4.06358333 L67.7138277,3.67483333 C68.1141629,4.01233333 68.5308717,4.18108333 68.9635448,4.18108333 C69.2705503,4.18108333 69.5038745,4.11108333 69.6639266,3.97108333 C69.8231602,3.8315 69.9033909,3.62525 69.9033909,3.354 C69.9033909,2.81483333 69.571825,2.54525 68.9086931,2.54525 L68.4113442,2.54525 L68.4113442,2.11941667 L68.8116794,2.11941667 C69.1309651,2.11941667 69.3757508,2.04775 69.5456272,1.90316667 C69.7155036,1.759 69.8002371,1.55358333 69.8002371,1.28608333 C69.8002371,1.04733333 69.7306492,0.864 69.5906547,0.7365 C69.4514788,0.609416667 69.254586,0.54525 68.9999761,0.54525 C68.5873607,0.54525 68.1788387,0.714416667 67.7744102,1.0515 L67.5865228,0.66275 C67.7604926,0.493583333 67.9737591,0.361083333 68.2263223,0.264416667 C68.4792948,0.16775 68.7429102,0.119416667 69.0175777,0.119416667 C69.406042,0.119416667 69.7163223,0.22025 69.9488277,0.421916667 C70.1809239,0.623583333 70.2971766,0.89525 70.2971766,1.23691667 C70.2971766,1.48775 70.2370036,1.70775 70.1154294,1.89733333 C69.9942646,2.0865 69.8264349,2.22233333 69.6123497,2.30441667 C69.8669596,2.37858333 70.0609871,2.50608333 70.1944321,2.68733333" id="Fill-70"></path>
                    <path d="M71.6495154,3.187 L73.1231418,3.187 L73.1231418,1.02658333 L71.6495154,3.187 Z M74.2754357,3.187 L74.2754357,3.607 L73.6204907,3.607 L73.6204907,4.56366667 L73.1231418,4.56366667 L73.1231418,3.607 L71.1341555,3.607 L71.1341555,3.2245 L73.2140154,0.168666667 L73.6204907,0.168666667 L73.6204907,3.187 L74.2754357,3.187 Z" id="Fill-72"></path>
                    <polygon id="Fill-74" points="78.0348613 0.168625 80.8846909 0.168625 80.8846909 0.545291667 78.8596827 4.563625 78.3254931 4.563625 80.3390398 0.594458333 78.0348613 0.594458333"></polygon>
                    <path d="M82.4040816,1.893875 C82.5755953,2.04054167 82.8068728,2.12929167 83.0983234,2.162625 C83.3893646,2.12929167 83.620642,2.04054167 83.7925651,1.893875 C83.9644882,1.74804167 84.0500404,1.557625 84.0500404,1.32304167 C84.0500404,1.08054167 83.9665349,0.888875 83.7987052,0.749291667 C83.6308755,0.609291667 83.397142,0.538875 83.0983234,0.538875 C82.7990953,0.538875 82.5653618,0.609291667 82.3979415,0.749291667 C82.2301118,0.888875 82.146197,1.08054167 82.146197,1.32304167 C82.146197,1.557625 82.2321585,1.74804167 82.4040816,1.893875 M83.8805734,3.97720833 C84.0623206,3.83720833 84.1531942,3.633875 84.1531942,3.36595833 C84.1531942,3.12345833 84.0574085,2.928875 83.8654277,2.78304167 C83.673447,2.63679167 83.4176091,2.54720833 83.0983234,2.51429167 C82.7790376,2.54720833 82.5231997,2.63679167 82.331219,2.78304167 C82.1392382,2.928875 82.0430431,3.12345833 82.0430431,3.36595833 C82.0430431,3.633875 82.1339168,3.83720833 82.3160734,3.97720833 C82.4978206,4.11720833 82.7585706,4.18720833 83.0983234,4.18720833 C83.4376668,4.18720833 83.6984168,4.11720833 83.8805734,3.97720833 M84.4110788,2.708875 C84.5666283,2.900125 84.6448124,3.12970833 84.6448124,3.39679167 C84.6448124,3.77179167 84.5052272,4.06679167 84.2260569,4.282625 C83.9472959,4.498875 83.5711118,4.60720833 83.0983234,4.60720833 C82.6255349,4.60720833 82.2493508,4.498875 81.9701805,4.282625 C81.6914195,4.06679167 81.5518343,3.77179167 81.5518343,3.39679167 C81.5518343,3.12970833 81.6316558,2.89929167 81.7912986,2.70554167 C81.9513508,2.51220833 82.1703481,2.37845833 82.4495184,2.30429167 C82.1908151,2.226375 81.9922849,2.097625 81.8551558,1.918875 C81.7176173,1.73970833 81.6488481,1.528875 81.6488481,1.28595833 C81.6488481,1.05179167 81.7094305,0.846791667 81.8310047,0.671791667 C81.9521695,0.496791667 82.1228646,0.360958333 82.3430898,0.264291667 C82.5633151,0.167625 82.8150596,0.119291667 83.0983234,0.119291667 C83.3811777,0.119291667 83.6325129,0.167625 83.8531475,0.264291667 C84.0737821,0.360958333 84.2444772,0.496791667 84.365642,0.671791667 C84.4868069,0.846791667 84.5473893,1.05179167 84.5473893,1.28595833 C84.5473893,1.528875 84.4778014,1.73970833 84.3382162,1.918875 C84.1990404,2.097625 84.0037849,2.226375 83.7532684,2.30429167 C84.0361228,2.38304167 84.2551201,2.51720833 84.4110788,2.708875" id="Fill-76"></path>
                    <path d="M88.1982168,4.13795833 L88.1982168,4.563375 L85.4208404,4.563375 L85.4208404,4.18129167 L86.9308981,2.47754167 C87.132703,2.247125 87.280475,2.03920833 87.3733953,1.85420833 C87.4663157,1.66879167 87.5129805,1.483375 87.5129805,1.29879167 C87.5129805,1.055875 87.4442113,0.869208333 87.3066728,0.740041667 C87.1691343,0.610041667 86.9730602,0.545458333 86.7184503,0.545458333 C86.3062442,0.545458333 85.8977223,0.714208333 85.493703,1.05170833 L85.3054063,0.662541667 C85.4752827,0.498375 85.6897772,0.366291667 85.9480712,0.267541667 C86.2071838,0.168791667 86.4675245,0.119208333 86.7307305,0.119208333 C87.1265629,0.119208333 87.4401179,0.223375 87.6705766,0.431291667 C87.9010354,0.639208333 88.0160602,0.919625 88.0160602,1.27379167 C88.0160602,1.52504167 87.9603898,1.76670833 87.8494585,1.99920833 C87.7381179,2.23170833 87.5530959,2.49170833 87.2943926,2.779625 L86.0635052,4.13795833 L88.1982168,4.13795833 Z" id="Fill-78"></path>
                    <polygon id="Fill-80" points="90.787583 4.13795833 91.7397093 4.13795833 91.7397093 4.563375 89.3319676 4.563375 89.3319676 4.13795833 90.284094 4.13795833 90.284094 0.798375 89.3986901 1.37254167 89.3986901 0.884625 90.5022725 0.168791667 90.787583 0.168791667"></polygon>
                    <path d="M93.0065777,3.187 L94.4802041,3.187 L94.4802041,1.02658333 L93.0065777,3.187 Z M95.6324981,3.187 L95.6324981,3.607 L94.977553,3.607 L94.977553,4.56366667 L94.4802041,4.56366667 L94.4802041,3.607 L92.4912179,3.607 L92.4912179,3.2245 L94.5710777,0.168666667 L94.977553,0.168666667 L94.977553,3.187 L95.6324981,3.187 Z" id="Fill-82"></path>
                    <path d="M98.8283025,2.68733333 C98.9617475,2.86858333 99.0284701,3.0965 99.0284701,3.37275 C99.0284701,3.75525 98.9007558,4.0565 98.6465552,4.2765 C98.391536,4.49691667 98.0460525,4.60691667 97.609286,4.60691667 C97.330525,4.60691667 97.0628162,4.55983333 96.8061596,4.46483333 C96.5490937,4.37025 96.3317338,4.23691667 96.1540799,4.06358333 L96.3481074,3.67483333 C96.7484426,4.01233333 97.164742,4.18108333 97.5974151,4.18108333 C97.9044206,4.18108333 98.1377448,4.11108333 98.297797,3.97108333 C98.4570305,3.8315 98.5372613,3.62525 98.5372613,3.354 C98.5372613,2.81483333 98.2056953,2.54525 97.5425635,2.54525 L97.0456239,2.54525 L97.0456239,2.11941667 L97.4459591,2.11941667 C97.7648354,2.11941667 98.0096212,2.04775 98.1794975,1.90316667 C98.3493739,1.759 98.4341074,1.55358333 98.4341074,1.28608333 C98.4341074,1.04733333 98.3645195,0.864 98.2249343,0.7365 C98.0853492,0.609416667 97.8884563,0.54525 97.6338464,0.54525 C97.221231,0.54525 96.8131184,0.714416667 96.4086898,1.0515 L96.2208025,0.66275 C96.3943629,0.493583333 96.6076294,0.361083333 96.8606019,0.264416667 C97.1131651,0.16775 97.3767805,0.119416667 97.6518574,0.119416667 C98.0399124,0.119416667 98.3501926,0.22025 98.5826981,0.421916667 C98.8152036,0.623583333 98.9314563,0.89525 98.9314563,1.23691667 C98.9314563,1.48775 98.8708739,1.70775 98.7492997,1.89733333 C98.6281349,2.0865 98.4603052,2.22233333 98.2462201,2.30441667 C98.5008299,2.37858333 98.6948574,2.50608333 98.8283025,2.68733333" id="Fill-84"></path>
                    <polygon id="Fill-86" points="101.447837 0.168625 104.297667 0.168625 104.297667 0.545291667 102.272659 4.563625 101.738469 4.563625 103.752016 0.594458333 101.447837 0.594458333"></polygon>
                    <path d="M111.2504,1.893875 C111.421913,2.040125 111.653191,2.12929167 111.944641,2.162625 C112.235683,2.12929167 112.46696,2.040125 112.638883,1.893875 C112.810806,1.747625 112.896359,1.557625 112.896359,1.32304167 C112.896359,1.080125 112.812853,0.888875 112.645023,0.748875 C112.477194,0.608875 112.24346,0.538875 111.944641,0.538875 C111.645413,0.538875 111.41168,0.608875 111.24426,0.748875 C111.07643,0.888875 110.992515,1.080125 110.992515,1.32304167 C110.992515,1.557625 111.078477,1.747625 111.2504,1.893875 M112.726891,3.97720833 C112.908639,3.83720833 112.999512,3.633875 112.999512,3.36595833 C112.999512,3.12304167 112.903727,2.928875 112.711746,2.78304167 C112.519765,2.63679167 112.263927,2.54720833 111.944641,2.51429167 C111.625356,2.54720833 111.369518,2.63679167 111.177537,2.78304167 C110.985556,2.928875 110.889361,3.12304167 110.889361,3.36595833 C110.889361,3.633875 110.980644,3.83720833 111.162391,3.97720833 C111.344139,4.11720833 111.604889,4.18720833 111.944641,4.18720833 C112.283985,4.18720833 112.545144,4.11720833 112.726891,3.97720833 M113.257397,2.708875 C113.412946,2.900125 113.49113,3.12970833 113.49113,3.39679167 C113.49113,3.771375 113.351545,4.06679167 113.072375,4.282625 C112.793614,4.498875 112.41743,4.60679167 111.944641,4.60679167 C111.471853,4.60679167 111.095669,4.498875 110.816499,4.282625 C110.537738,4.06679167 110.398152,3.771375 110.398152,3.39679167 C110.398152,3.12970833 110.477974,2.898875 110.637617,2.70554167 C110.797669,2.51220833 111.016666,2.37845833 111.295837,2.30429167 C111.037133,2.226375 110.838603,2.097625 110.701474,1.918875 C110.563935,1.73970833 110.495166,1.528875 110.495166,1.28595833 C110.495166,1.05179167 110.555749,0.846375 110.677323,0.671375 C110.798488,0.496791667 110.969183,0.360958333 111.189408,0.264291667 C111.410043,0.167625 111.661378,0.119291667 111.944641,0.119291667 C112.227496,0.119291667 112.47924,0.167625 112.699875,0.264291667 C112.9201,0.360958333 113.090795,0.496791667 113.21196,0.671375 C113.333125,0.846375 113.393707,1.05179167 113.393707,1.28595833 C113.393707,1.528875 113.32412,1.73970833 113.184534,1.918875 C113.045359,2.097625 112.850103,2.226375 112.599587,2.30429167 C112.882441,2.382625 113.101438,2.51720833 113.257397,2.708875" id="Fill-88"></path>
                    <path d="M116.171288,2.230375 C116.349352,2.049125 116.438179,1.81495833 116.438179,1.52704167 C116.438179,1.23454167 116.349352,0.997875 116.171288,0.816625 C115.993225,0.635791667 115.761129,0.545375 115.473772,0.545375 C115.199104,0.545375 114.976832,0.634958333 114.806956,0.814125 C114.63708,0.992458333 114.551937,1.230375 114.551937,1.52704167 C114.551937,1.819125 114.63708,2.05454167 114.806956,2.23329167 C114.976832,2.41245833 115.201151,2.50204167 115.479912,2.50204167 C115.762766,2.50204167 115.993225,2.411625 116.171288,2.230375 M116.656357,0.674958333 C116.939212,1.04495833 117.080843,1.57204167 117.080843,2.255375 C117.080843,2.99995833 116.934299,3.57870833 116.641212,3.99245833 C116.348124,4.40620833 115.938783,4.612875 115.41319,4.612875 C115.166357,4.612875 114.925255,4.565375 114.688657,4.47079167 C114.452058,4.37620833 114.242885,4.24245833 114.060728,4.06995833 L114.254755,3.68079167 C114.461063,3.857875 114.657137,3.986625 114.842978,4.066625 C115.029228,4.14704167 115.217115,4.18704167 115.407049,4.18704167 C115.77914,4.18704167 116.067316,4.01829167 116.271577,3.68079167 C116.475429,3.34370833 116.577354,2.870375 116.577354,2.26120833 L116.577354,2.18079167 C116.484434,2.411625 116.332978,2.59370833 116.122577,2.72704167 C115.912585,2.86120833 115.671893,2.927875 115.400909,2.927875 C115.138522,2.927875 114.905607,2.869125 114.703802,2.75204167 C114.501588,2.63454167 114.343992,2.46995833 114.230604,2.257875 C114.117626,2.046625 114.060728,1.80454167 114.060728,1.532875 C114.060728,1.26120833 114.120492,1.01870833 114.240019,0.804541667 C114.359137,0.590375 114.523692,0.422875 114.734093,0.301208333 C114.944085,0.179958333 115.182731,0.119541667 115.449621,0.119541667 C115.971121,0.119541667 116.373503,0.304541667 116.656357,0.674958333" id="Fill-90"></path>
                    <path d="M123.562998,2.68691667 C123.696443,2.86858333 123.763166,3.0965 123.763166,3.37233333 C123.763166,3.75483333 123.635861,4.0565 123.381251,4.2765 C123.126641,4.49691667 122.780748,4.6065 122.343982,4.6065 C122.065221,4.6065 121.797512,4.55941667 121.540855,4.46483333 C121.28379,4.37025 121.06643,4.2365 120.888776,4.06358333 L121.082803,3.67483333 C121.483138,4.01233333 121.899438,4.18108333 122.332111,4.18108333 C122.639116,4.18108333 122.872441,4.11108333 123.032493,3.97108333 C123.191726,3.83108333 123.271957,3.62525 123.271957,3.354 C123.271957,2.81483333 122.940391,2.54525 122.277259,2.54525 L121.78032,2.54525 L121.78032,2.11941667 L122.180655,2.11941667 C122.499531,2.11941667 122.744317,2.04733333 122.914193,1.90316667 C123.08407,1.759 123.168803,1.55316667 123.168803,1.28608333 C123.168803,1.04691667 123.099215,0.864 122.95963,0.7365 C122.820045,0.609 122.623152,0.54525 122.368542,0.54525 C121.955927,0.54525 121.547814,0.714416667 121.143386,1.0515 L120.955498,0.66275 C121.129059,0.493583333 121.342735,0.361083333 121.595298,0.264416667 C121.847861,0.16775 122.111476,0.119416667 122.386553,0.119416667 C122.774608,0.119416667 123.084888,0.22025 123.317394,0.4215 C123.549899,0.623583333 123.666152,0.894833333 123.666152,1.23691667 C123.666152,1.48775 123.60557,1.70733333 123.483996,1.89691667 C123.362831,2.0865 123.195001,2.22233333 122.980916,2.30441667 C123.235526,2.37858333 123.429553,2.50566667 123.562998,2.68691667" id="Fill-92"></path>
                    <path d="M127.486529,4.13795833 L127.486529,4.563375 L124.709152,4.563375 L124.709152,4.18129167 L126.21921,2.47754167 C126.421015,2.24670833 126.568787,2.03920833 126.661707,1.85379167 C126.754627,1.66879167 126.801292,1.483375 126.801292,1.298375 C126.801292,1.055875 126.732523,0.869208333 126.594985,0.739625 C126.457446,0.610041667 126.261372,0.545458333 126.006762,0.545458333 C125.594556,0.545458333 125.186034,0.714208333 124.782015,1.05170833 L124.593718,0.662541667 C124.763595,0.497958333 124.978089,0.366291667 125.236383,0.267541667 C125.495496,0.168791667 125.755836,0.119208333 126.019042,0.119208333 C126.414875,0.119208333 126.72843,0.222958333 126.958888,0.431291667 C127.189347,0.639208333 127.304372,0.919625 127.304372,1.273375 C127.304372,1.52504167 127.248702,1.76670833 127.13777,1.99879167 C127.02643,2.23129167 126.841408,2.49170833 126.582704,2.779625 L125.351817,4.13795833 L127.486529,4.13795833 Z" id="Fill-94"></path>
                    <path d="M132.134387,1.893875 C132.30631,2.040125 132.537588,2.12929167 132.828629,2.162625 C133.120079,2.12929167 133.351357,2.040125 133.522871,1.893875 C133.694794,1.747625 133.780755,1.557625 133.780755,1.32304167 C133.780755,1.080125 133.69684,0.888875 133.529011,0.748875 C133.361181,0.608875 133.127857,0.538875 132.828629,0.538875 C132.529401,0.538875 132.296077,0.608875 132.128247,0.748875 C131.960417,0.888875 131.876912,1.080125 131.876912,1.32304167 C131.876912,1.557625 131.962464,1.747625 132.134387,1.893875 M133.610879,3.97720833 C133.792626,3.83720833 133.883909,3.633875 133.883909,3.36595833 C133.883909,3.12304167 133.788123,2.928875 133.595733,2.78304167 C133.403752,2.63679167 133.148324,2.54720833 132.828629,2.51429167 C132.509343,2.54720833 132.253505,2.63679167 132.061524,2.78304167 C131.869544,2.928875 131.773758,3.12304167 131.773758,3.36595833 C131.773758,3.633875 131.864632,3.83720833 132.046379,3.97720833 C132.228126,4.11720833 132.489285,4.18720833 132.828629,4.18720833 C133.167972,4.18720833 133.429132,4.11720833 133.610879,3.97720833 M134.141384,2.708875 C134.297343,2.900125 134.375118,3.12970833 134.375118,3.39679167 C134.375118,3.771375 134.235533,4.06679167 133.956772,4.282625 C133.678011,4.498875 133.301827,4.60679167 132.828629,4.60679167 C132.35584,4.60679167 131.979656,4.498875 131.700895,4.282625 C131.421725,4.06679167 131.28214,3.771375 131.28214,3.39679167 C131.28214,3.12970833 131.362371,2.898875 131.522013,2.70554167 C131.681656,2.51220833 131.901063,2.37845833 132.179824,2.30429167 C131.921121,2.226375 131.723,2.097625 131.585461,1.918875 C131.447923,1.73970833 131.379563,1.528875 131.379563,1.28595833 C131.379563,1.05179167 131.440145,0.846375 131.56131,0.671375 C131.682475,0.496791667 131.85317,0.360958333 132.073805,0.264291667 C132.29403,0.167625 132.545774,0.119291667 132.828629,0.119291667 C133.111483,0.119291667 133.363228,0.167625 133.583862,0.264291667 C133.804088,0.360958333 133.974783,0.496791667 134.095948,0.671375 C134.217522,0.846375 134.278104,1.05179167 134.278104,1.28595833 C134.278104,1.528875 134.208107,1.73970833 134.068931,1.918875 C133.929346,2.097625 133.73409,2.226375 133.483574,2.30429167 C133.766428,2.382625 133.985835,2.51720833 134.141384,2.708875" id="Fill-96"></path>
                    <path d="M137.928727,4.13795833 L137.928727,4.563375 L135.151351,4.563375 L135.151351,4.18129167 L136.660999,2.47754167 C136.863213,2.24670833 137.010576,2.03920833 137.103905,1.85379167 C137.196826,1.66879167 137.243491,1.483375 137.243491,1.298375 C137.243491,1.055875 137.174721,0.869208333 137.037183,0.739625 C136.899645,0.610041667 136.70357,0.545458333 136.44896,0.545458333 C136.036754,0.545458333 135.628232,0.714208333 135.223804,1.05170833 L135.035916,0.662541667 C135.205793,0.497958333 135.420287,0.366291667 135.678581,0.267541667 C135.937694,0.168791667 136.198035,0.119208333 136.461241,0.119208333 C136.857073,0.119208333 137.170628,0.222958333 137.401087,0.431291667 C137.631136,0.639208333 137.74657,0.919625 137.74657,1.273375 C137.74657,1.52504167 137.6909,1.76670833 137.579969,1.99879167 C137.468628,2.23129167 137.283606,2.49170833 137.024903,2.779625 L135.794015,4.13795833 L137.928727,4.13795833 Z" id="Fill-98"></path>
                    <polygon id="Fill-100" points="140.517684 4.13795833 141.46981 4.13795833 141.46981 4.563375 139.062478 4.563375 139.062478 4.13795833 140.014604 4.13795833 140.014604 0.797958333 139.1292 1.372125 139.1292 0.884625 140.232783 0.168791667 140.517684 0.168791667"></polygon>
                    <path d="M142.737088,3.187 L144.210714,3.187 L144.210714,1.02658333 L142.737088,3.187 Z M145.363008,3.187 L145.363008,3.607 L144.707654,3.607 L144.707654,4.56366667 L144.210714,4.56366667 L144.210714,3.607 L142.221728,3.607 L142.221728,3.22408333 L144.301588,0.168666667 L144.707654,0.168666667 L144.707654,3.187 L145.363008,3.187 Z" id="Fill-102"></path>
                    <path d="M148.558772,2.68691667 C148.692217,2.86858333 148.75853,3.0965 148.75853,3.37233333 C148.75853,3.75483333 148.631225,4.0565 148.376615,4.2765 C148.122005,4.49691667 147.776522,4.6065 147.339755,4.6065 C147.060994,4.6065 146.793285,4.55941667 146.536629,4.46483333 C146.279563,4.37025 146.062203,4.2365 145.884549,4.06358333 L146.078577,3.67483333 C146.478502,4.01233333 146.895211,4.18108333 147.327884,4.18108333 C147.63489,4.18108333 147.868214,4.11108333 148.028266,3.97108333 C148.1875,3.83108333 148.26773,3.62525 148.26773,3.354 C148.26773,2.81483333 147.936165,2.54525 147.273033,2.54525 L146.776093,2.54525 L146.776093,2.11941667 L147.176428,2.11941667 C147.495305,2.11941667 147.74009,2.04733333 147.909967,1.90316667 C148.079843,1.759 148.164577,1.55316667 148.164577,1.28608333 C148.164577,1.04691667 148.094989,0.864 147.955404,0.7365 C147.815818,0.609 147.618926,0.54525 147.364316,0.54525 C146.9517,0.54525 146.543178,0.714416667 146.139159,1.0515 L145.951272,0.66275 C146.124832,0.493583333 146.338099,0.361083333 146.590662,0.264416667 C146.843634,0.16775 147.10725,0.119416667 147.382327,0.119416667 C147.770382,0.119416667 148.080662,0.22025 148.313167,0.4215 C148.545673,0.623583333 148.661516,0.894833333 148.661516,1.23691667 C148.661516,1.48775 148.601343,1.70733333 148.479769,1.89691667 C148.358604,2.0865 148.190774,2.22233333 147.976689,2.30441667 C148.231299,2.37858333 148.425327,2.50566667 148.558772,2.68691667" id="Fill-104"></path>
                </g>
            </g>
        </g>
    </g>
</svg>