<?xml version="1.0" encoding="UTF-8"?>
<svg width="94px" height="40px" viewBox="0 0 94 40" version="1.1" xmlns="http://www.w3.org/2000/svg" xmlns:xlink="http://www.w3.org/1999/xlink">
    <!-- Generator: Sketch 54.1 (76490) - https://sketchapp.com -->
    <title>bracelet-img</title>
    <desc>Created with Sketch.</desc>
    <defs>
        <polygon id="path-1" points="0.471238938 0.142893418 60.5527196 0.142893418 60.5527196 39.5119786 0.471238938 39.5119786"></polygon>
        <polygon id="path-3" points="0 0.041315331 23.0099418 0.041315331 23.0099418 29.9919599 0 29.9919599"></polygon>
    </defs>
    <g id="bracelet-img" stroke="none" stroke-width="1" fill="none" fill-rule="evenodd">
        <g id="Group-43" transform="translate(0.000000, 0.000000)">
            <g id="Group-3" transform="translate(16.097561, 0.000000)">
                <mask id="mask-2" fill="white">
                    <use xlink:href="#path-1"></use>
                </mask>
                <g id="Clip-2"></g>
                <path d="M1.28604576,8.4678423 L1.28550615,8.4678423 C0.84410749,8.4678423 0.485808332,8.10790244 0.485808332,7.66460809 L0.489045975,2.75697695 C0.489045975,1.31613498 1.64704295,0.142676913 3.06998705,0.142676913 L57.9744766,0.172446375 C59.3958019,0.172446375 60.5527196,1.34590444 60.5527196,2.78891146 L60.5511008,7.1823428 C60.5511008,7.62509589 60.192262,7.98395322 59.7503238,7.98395322 L59.7497842,7.98395322 C59.3083855,7.98395322 58.9506259,7.62455463 58.9506259,7.18071901 L58.9527844,2.7883702 C58.9527844,2.23195189 58.5135441,1.77783228 57.9733974,1.77783228 L3.06944744,1.74806281 C2.52930067,1.74806281 2.08952083,2.2010999 2.08952083,2.75751821 L2.08628319,7.66623187 C2.08628319,8.10898496 1.72744442,8.4678423 1.28604576,8.4678423 M57.9534319,39.5119786 L3.05002158,39.4822092 C1.62869631,39.4822092 0.471238938,38.3087511 0.471238938,36.8657441 L0.473397367,32.4436258 C0.473397367,32.0008727 0.832236132,31.6414741 1.27363479,31.6414741 L1.27471401,31.6414741 C1.71611267,31.6414741 2.07387222,32.001414 2.07387222,32.4452496 L2.07171379,36.8668266 C2.07171379,37.4232449 2.51095403,37.8768233 3.05056119,37.8768233 L57.9539715,37.907134 C58.4946579,37.907134 58.9344377,37.4540969 58.9344377,36.8971373 L58.9371358,31.7210398 C58.9371358,31.2772041 59.2954349,30.9183468 59.7373732,30.9183468 C60.1793115,30.9183468 60.5376106,31.2782867 60.5376106,31.7210398 L60.5349126,36.8971373 C60.5349126,38.3390618 59.3769156,39.5119786 57.9534319,39.5119786" id="Fill-1" fill="#FFFFFF" mask="url(#mask-2)"></path>
            </g>
            <g id="Group-6" transform="translate(0.000000, 2.926829)">
                <mask id="mask-4" fill="white">
                    <use xlink:href="#path-3"></use>
                </mask>
                <g id="Clip-5"></g>
                <path d="M22.7191106,4.86143728 C22.7142099,4.45260453 22.3989291,4.1129007 21.9889007,4.07401568 C12.9633761,3.21476481 5.60519115,1.84460801 -0.000163357913,0.041315331 L-0.000163357913,1.71985192 C6.35936018,3.69866725 13.9908973,4.89168118 21.1127578,5.59809233 L21.3839319,28.2588763 C12.7951174,26.9502875 5.5730641,25.0784059 -0.000163357913,22.8246951 L-0.000163357913,24.6269077 C5.77835054,26.8627962 13.1926217,28.6849913 22.0847374,29.9833188 C22.1244878,29.9887195 22.1631492,29.9919599 22.2023551,29.9919599 C22.396751,29.9919599 22.5857016,29.9222909 22.7338128,29.7942944 C22.9124175,29.6398345 23.0126103,29.4162456 23.0098877,29.1818554 L22.7191106,4.86143728 Z" id="Fill-4" fill="#FFFFFF" mask="url(#mask-4)"></path>
            </g>
            <path d="M93.6585366,25.2066089 C88.2568756,28.2143562 80.7108828,30.5011272 72.0773109,31.4832487 L71.8550359,8.76522629 C80.996974,7.65926264 88.3233958,5.94054991 93.6585366,3.69685444 L93.6585366,1.95121951 C88.314202,4.31121886 80.6470666,6.13708191 70.9529564,7.26404487 C70.5451818,7.31196637 70.2396213,7.65710887 70.2439478,8.0652493 L70.4819064,32.3797577 C70.4840697,32.6042888 70.5814164,32.818051 70.7501507,32.9677384 C70.8967116,33.0985802 71.0881601,33.1707317 71.2839352,33.1707317 C71.3115168,33.1707317 71.3385575,33.1691164 71.3661391,33.1664242 C80.245241,32.2548387 87.9534783,30.0283735 93.6585366,27.0141649 L93.6585366,25.2066089 Z" id="Fill-7" fill="#FFFFFF"></path>
        </g>
    </g>
</svg>