<?xml version="1.0" encoding="UTF-8"?>
<svg width="90px" height="19px" viewBox="0 0 90 19" version="1.1" xmlns="http://www.w3.org/2000/svg" xmlns:xlink="http://www.w3.org/1999/xlink">
    <!-- Generator: Sketch 52.6 (67491) - http://www.bohemiancoding.com/sketch -->
    <title>Logo-Connect&amp;Go</title>
    <desc>Created with Sketch.</desc>
    <defs>
        <polygon id="path-1" points="0.232625 0.495 7.900125 0.495 7.900125 11.7406875 0.232625 11.7406875"></polygon>
        <polygon id="path-3" points="0.49525 0.495 8.673125 0.495 8.673125 11.7406875 0.49525 11.7406875"></polygon>
        <polygon id="path-5" points="0.39140784 0.0615625 1.01640784 0.0615625 1.01640784 0.625 0.39140784 0.625"></polygon>
        <polygon id="path-7" points="0.161032658 0.0615625 0.786032658 0.0615625 0.786032658 0.625 0.161032658 0.625"></polygon>
        <polygon id="path-9" points="0.616 0.0615625 1.173125 0.0615625 1.173125 0.625 0.616 0.625"></polygon>
    </defs>
    <g id="Page-1" stroke="none" stroke-width="1" fill="none" fill-rule="evenodd">
        <g id="Page---valided-Copy" transform="translate(-143.000000, -22.000000)">
            <g id="Logo-Connect&amp;Go" transform="translate(143.000000, 22.000000)">
                <path d="M4.7315,0.6874375 C6.00275,0.6874375 6.57025,0.9211875 7.01025,1.0955625 L7.01025,3.2993125 C6.352125,3.0374375 5.840875,2.8749375 4.96525,2.8749375 C3.18525,2.8749375 2.365875,3.5918125 2.365875,6.3661875 C2.365875,9.1399375 3.182125,9.8568125 4.96525,9.8568125 C5.840875,9.8568125 6.352125,9.6980625 7.01025,9.4330625 L7.01025,11.6399375 C6.57025,11.8143125 6.00275,12.0480625 4.7315,12.0480625 C1.533375,12.0480625 0.012125,10.4868125 0.00025,6.3661875 C0.01525,2.2486875 1.533375,0.6874375 4.7315,0.6874375" id="Fill-1" fill="#FFFFFF"></path>
                <path d="M10.5719375,6.3691875 C10.5719375,8.9248125 11.1269375,9.9348125 12.5731875,9.9348125 C14.0194375,9.9348125 14.5738125,8.9248125 14.5738125,6.3691875 C14.5738125,3.8135625 14.0194375,2.8066875 12.5731875,2.8066875 C11.1269375,2.8035625 10.5719375,3.8104375 10.5719375,6.3691875 M8.2069375,6.3691875 C8.2069375,3.0248125 9.1263125,0.6873125 12.5731875,0.6873125 C16.0206875,0.6873125 16.9394375,3.0248125 16.9394375,6.3691875 C16.9394375,9.7135625 16.0206875,12.0510625 12.5731875,12.0510625 C9.1263125,12.0510625 8.2069375,9.7104375 8.2069375,6.3691875" id="Fill-3" fill="#FFFFFF"></path>
                <polygon id="Fill-5" fill="#FFFFFF" points="23.996625 11.8455625 20.46225 5.3030625 20.521 11.8455625 18.211625 11.8455625 18.211625 0.8899375 20.521 0.8899375 24.056 7.4349375 23.996625 0.8899375 26.30225 0.8899375 26.30225 11.8455625"></polygon>
                <polygon id="Fill-7" fill="#FFFFFF" points="33.430875 11.8455625 29.8965 5.3030625 29.95525 11.8455625 27.649 11.8455625 27.649 0.8899375 29.95525 0.8899375 33.49025 7.4349375 33.430875 0.8899375 35.74025 0.8899375 35.74025 11.8455625"></polygon>
                <polygon id="Fill-9" fill="#FFFFFF" points="43.6414375 7.2295 39.4214375 7.2295 39.4214375 9.71075 44.0658125 9.71075 44.0658125 11.84575 37.0839375 11.84575 37.0839375 0.8895 44.0658125 0.8895 44.0658125 3.022 39.4214375 3.022 39.4214375 5.141375 43.6414375 5.141375"></polygon>
                <path d="M49.9219375,0.6874375 C51.1938125,0.6874375 51.7638125,0.9211875 52.2006875,1.0955625 L52.2006875,3.2993125 C51.5431875,3.0374375 51.0313125,2.8749375 50.1556875,2.8749375 C48.3725625,2.8749375 47.5563125,3.5918125 47.5563125,6.3661875 C47.5563125,9.1399375 48.3725625,9.8568125 50.1556875,9.8568125 C51.0313125,9.8568125 51.5431875,9.6980625 52.2006875,9.4330625 L52.2006875,11.6399375 C51.7638125,11.8143125 51.1938125,12.0480625 49.9219375,12.0480625 C46.7244375,12.0480625 45.2031875,10.4868125 45.1875625,6.3661875 C45.2031875,2.2486875 46.7244375,0.6874375 49.9219375,0.6874375" id="Fill-11" fill="#FFFFFF"></path>
                <polygon id="Fill-13" fill="#FFFFFF" points="57.7081875 3.02175 57.7081875 11.8455 55.3706875 11.8455 55.3706875 3.02175 52.7269375 3.02175 52.7269375 0.889875 60.3513125 0.889875 60.3513125 3.02175"></polygon>
                <g id="Group-17" transform="translate(71.875000, 0.130188)">
                    <mask id="mask-2" fill="white">
                        <use xlink:href="#path-1"></use>
                    </mask>
                    <g id="Clip-16"></g>
                    <path d="M0.232625,6.1175625 C0.232625,3.0069375 1.270125,0.4944375 4.540125,0.4944375 C6.06075,0.4944375 7.008875,0.8031875 7.607,1.1088125 L7.607,2.1031875 C6.466375,1.6356875 5.7245,1.4169375 4.540125,1.4169375 C2.146375,1.4169375 1.28325,3.4775625 1.28325,6.1206875 C1.28325,8.7638125 2.14325,10.8238125 4.540125,10.8238125 C5.372625,10.8238125 6.397625,10.7525625 6.90575,10.5031875 L6.90575,6.7594375 L4.615125,6.7594375 L4.615125,5.8400625 L7.900125,5.8400625 L7.900125,11.1419375 C7.155125,11.4906875 6.073875,11.7406875 4.540125,11.7406875 C1.267,11.7406875 0.232625,9.2281875 0.232625,6.1175625" id="Fill-15" fill="#FFFFFF" mask="url(#mask-2)"></path>
                </g>
                <g id="Group-20" transform="translate(81.250000, 0.130188)">
                    <mask id="mask-4" fill="white">
                        <use xlink:href="#path-3"></use>
                    </mask>
                    <g id="Clip-19"></g>
                    <path d="M7.62275,6.1175625 C7.62275,3.4900625 7.227125,1.4144375 4.584,1.4144375 C1.940875,1.4144375 1.544625,3.4869375 1.544625,6.1175625 C1.544625,8.7481875 1.940875,10.8206875 4.584,10.8206875 C7.23025,10.8206875 7.62275,8.7450625 7.62275,6.1175625 M0.49525,6.1175625 C0.49525,3.2563125 1.005875,0.4944375 4.584,0.4944375 C8.162125,0.4944375 8.673375,3.2563125 8.673375,6.1175625 C8.673375,8.9819375 8.162125,11.7406875 4.584,11.7406875 C1.009,11.7406875 0.49525,8.9819375 0.49525,6.1175625" id="Fill-18" fill="#FFFFFF" mask="url(#mask-4)"></path>
                </g>
                <path d="M64.060125,11.0289375 C63.018875,11.0289375 62.108875,10.0751875 62.108875,9.0345625 C62.108875,7.9058125 63.106375,7.2295625 63.942,6.6589375 L64.46825,6.3070625 L66.93075,9.4739375 C66.142,10.1626875 65.172625,11.0289375 64.060125,11.0289375 Z M65.041375,1.7470625 C65.687,1.7470625 66.241375,2.2020625 66.241375,2.8751875 C66.241375,3.7539375 65.497,4.1814375 64.863875,4.6645625 L64.761375,4.7364375 L64.496375,4.3714375 C64.187625,3.9320625 63.820125,3.5201875 63.820125,2.9626875 C63.826375,2.2739375 64.36825,1.7470625 65.041375,1.7470625 Z M70.365125,11.8426875 L70.166375,10.6920625 L69.69825,11.0851875 L68.532625,9.5326875 L69.523875,8.3795625 L69.991375,8.7476875 L70.1595,7.5533125 L70.33075,6.3601875 L69.212,6.8089375 L68.090125,7.2576875 L68.610125,7.6689375 L67.797,8.6164375 L65.46575,5.6395625 C66.418875,4.9226875 67.417,4.2033125 67.417,2.8845625 C67.417,1.5945625 66.316375,0.7158125 65.0695,0.7158125 C63.692,0.7158125 62.651375,1.6689375 62.651375,3.0620625 C62.651375,3.9720625 63.252625,4.7201875 63.751375,5.4058125 L63.62075,5.4933125 C62.24325,6.4039375 60.908875,7.2826875 60.908875,9.1276875 C60.908875,10.8858125 62.448875,12.1483125 64.1345,12.1483125 C65.51575,12.1483125 66.683875,11.2814375 67.668875,10.4026875 L68.782,11.8583125 L68.3795,12.1945625 L69.477,12.5933125 L70.5745,12.9951875 L70.365125,11.8426875 Z" id="Fill-21" fill="#FFFFFF"></path>
                <polygon id="Fill-23" fill="#FFFFFF" points="50.4615 18.842625 50.4615 15.52325 52.462125 15.52325 52.462125 15.841375 50.800875 15.841375 50.800875 16.96325 52.344 16.96325 52.344 17.27825 50.800875 17.27825 50.800875 18.53075 52.555875 18.53075 52.555875 18.842625"></polygon>
                <path d="M53.303875,18.842625 L53.303875,15.52325 L53.690125,15.52325 C55.12075,17.636375 55.252,17.84825 55.470125,18.216375 C55.46075,17.755125 55.453875,17.21575 55.453875,15.52325 L55.78825,15.52325 L55.78825,18.842625 L55.457625,18.842625 C54.18575,16.916375 53.87075,16.446375 53.63075,16.062625 C53.633875,16.530125 53.633875,17.0945 53.633875,18.842625 L53.303875,18.842625 Z" id="Fill-25" fill="#FFFFFF"></path>
                <polygon id="Fill-27" fill="#FFFFFF" points="57.6141875 18.842625 57.6141875 15.841375 56.5073125 15.841375 56.5073125 15.52325 59.0479375 15.52325 59.0479375 15.841375 57.9541875 15.841375 57.9541875 18.842625"></polygon>
                <polygon id="Fill-29" fill="#FFFFFF" points="59.768125 18.842625 59.768125 15.52325 61.765625 15.52325 61.765625 15.841375 60.104375 15.841375 60.104375 16.96325 61.6475 16.96325 61.6475 17.27825 60.104375 17.27825 60.104375 18.53075 61.859375 18.53075 61.859375 18.842625"></polygon>
                <path d="M63.446125,17.100375 C63.694875,17.100375 63.91675,17.081625 64.078625,16.991625 C64.256125,16.89475 64.35925,16.686 64.35925,16.436625 C64.35925,16.171625 64.2405,15.969125 64.00425,15.88475 C63.851125,15.825375 63.65175,15.816 63.389875,15.816 L62.947375,15.816 L62.947375,17.09725 L63.446125,17.09725 L63.446125,17.100375 Z M63.694875,17.384125 C63.62675,17.390375 63.558625,17.3935 63.48925,17.3935 L62.947375,17.3935 L62.947375,18.842875 L62.607375,18.842875 L62.607375,15.5235 L63.39925,15.5235 C63.694875,15.5235 63.959875,15.5385 64.1655,15.601625 C64.514875,15.710375 64.727375,15.981625 64.727375,16.417875 C64.727375,16.872875 64.48675,17.200375 64.016125,17.331 L64.92925,18.846 L64.546125,18.846 L63.694875,17.384125 Z" id="Fill-31" fill="#FFFFFF"></path>
                <g id="Group-35" transform="translate(65.000000, 18.255188)">
                    <mask id="mask-6" fill="white">
                        <use xlink:href="#path-5"></use>
                    </mask>
                    <g id="Clip-34"></g>
                    <path d="M0.6995,0.625 C0.581375,0.625 0.4595,0.55625 0.4595,0.385 C0.4595,0.204375 0.583875,0.123125 0.708875,0.123125 C0.827,0.123125 0.94825,0.1825 0.94825,0.385 C0.951375,0.54375 0.842625,0.625 0.6995,0.625" id="Fill-33" fill="#FFFFFF" mask="url(#mask-6)"></path>
                </g>
                <path d="M68.5199375,17.1690625 C68.7355625,17.1690625 69.0124375,17.1596875 69.1899375,17.1065625 C69.4549375,17.0228125 69.6324375,16.8478125 69.6324375,16.4615625 C69.6324375,16.1809375 69.5111875,15.9846875 69.2461875,15.8971875 C69.0936875,15.8478125 68.8630625,15.8384375 68.6130625,15.8384375 L68.1805625,15.8384375 L68.1805625,17.1690625 L68.5199375,17.1690625 Z M67.8374375,18.8428125 L67.8374375,15.5234375 L68.5543125,15.5234375 C68.8536875,15.5234375 69.1280625,15.5328125 69.3399375,15.5859375 C69.7511875,15.6884375 69.9849375,15.9628125 69.9849375,16.4396875 C69.9849375,16.9790625 69.7136875,17.2778125 69.2930625,17.3871875 C69.0718125,17.4465625 68.7918125,17.4559375 68.5330625,17.4559375 L68.1774375,17.4559375 L68.1774375,18.8428125 L67.8374375,18.8428125 Z" id="Fill-36" fill="#FFFFFF"></path>
                <path d="M72.248,17.5273125 C71.8455,16.4860625 71.718,16.1529375 71.628,15.9066875 C71.543625,16.1373125 71.422375,16.4773125 70.988625,17.5273125 L72.248,17.5273125 Z M70.09425,18.8460625 L71.4405,15.5229375 L71.814875,15.5229375 L73.12675,18.8460625 L72.758625,18.8460625 L72.357375,17.8298125 L70.873625,17.8298125 L70.4555,18.8460625 L70.09425,18.8460625 Z" id="Fill-38" fill="#FFFFFF"></path>
                <path d="M74.220625,18.842625 L74.220625,17.53075 L72.96125,15.520125 L73.360625,15.520125 C74.12125,16.7295 74.25875,16.95075 74.40125,17.206375 C74.554375,16.9445 74.673125,16.76075 75.451875,15.520125 L75.841875,15.520125 L74.560625,17.53075 L74.560625,18.842625 L74.220625,18.842625 Z" id="Fill-40" fill="#FFFFFF"></path>
                <g id="Group-44" transform="translate(75.625000, 18.255188)">
                    <mask id="mask-8" fill="white">
                        <use xlink:href="#path-7"></use>
                    </mask>
                    <g id="Clip-43"></g>
                    <path d="M0.4688125,0.625 C0.3506875,0.625 0.2288125,0.55625 0.2288125,0.385 C0.2288125,0.204375 0.3531875,0.123125 0.4788125,0.123125 C0.5969375,0.123125 0.7181875,0.1825 0.7181875,0.385 C0.7213125,0.54375 0.6119375,0.625 0.4688125,0.625" id="Fill-42" fill="#FFFFFF" mask="url(#mask-8)"></path>
                </g>
                <path d="M78.914875,17.1690625 C79.129875,17.1690625 79.407375,17.1596875 79.584875,17.1065625 C79.849875,17.0228125 80.027375,16.8478125 80.027375,16.4615625 C80.027375,16.1809375 79.906125,15.9846875 79.641125,15.8971875 C79.488,15.8478125 79.258,15.8384375 79.008,15.8384375 L78.574875,15.8384375 L78.574875,17.1690625 L78.914875,17.1690625 Z M78.23175,18.8428125 L78.23175,15.5234375 L78.94925,15.5234375 C79.248,15.5234375 79.523,15.5328125 79.734875,15.5859375 C80.14925,15.6884375 80.379875,15.9628125 80.379875,16.4396875 C80.379875,16.9790625 80.108625,17.2778125 79.687375,17.3871875 C79.46675,17.4465625 79.186125,17.4559375 78.927375,17.4559375 L78.57175,17.4559375 L78.57175,18.8428125 L78.23175,18.8428125 Z" id="Fill-45" fill="#FFFFFF"></path>
                <polygon id="Fill-47" fill="#FFFFFF" points="81.134125 18.842625 81.134125 15.52325 81.4735 15.52325 81.4735 18.53075 83.216 18.53075 83.216 18.842625"></polygon>
                <path d="M85.824625,17.5273125 C85.422125,16.4860625 85.294625,16.1529375 85.204625,15.9066875 C85.12025,16.1373125 84.999,16.4773125 84.56525,17.5273125 L85.824625,17.5273125 Z M83.674625,18.8460625 L85.020875,15.5229375 L85.394625,15.5229375 L86.7065,18.8460625 L86.339,18.8460625 L85.937125,17.8298125 L84.453375,17.8298125 L84.035875,18.8460625 L83.674625,18.8460625 Z" id="Fill-49" fill="#FFFFFF"></path>
                <path d="M87.7979375,18.842625 L87.7979375,17.53075 L86.5385625,15.520125 L86.9373125,15.520125 C87.6979375,16.7295 87.8354375,16.95075 87.9785625,17.206375 C88.1310625,16.9445 88.2498125,16.76075 89.0291875,15.520125 L89.4185625,15.520125 L88.1373125,17.53075 L88.1373125,18.842625 L87.7979375,18.842625 Z" id="Fill-51" fill="#FFFFFF"></path>
                <g id="Group-55" transform="translate(88.750000, 18.255188)">
                    <mask id="mask-10" fill="white">
                        <use xlink:href="#path-9"></use>
                    </mask>
                    <g id="Clip-54"></g>
                    <path d="M0.924125,0.625 C0.806,0.625 0.684125,0.55625 0.684125,0.385 C0.684125,0.204375 0.8085,0.123125 0.9335,0.123125 C1.051625,0.123125 1.172875,0.1825 1.172875,0.385 C1.172875,0.54375 1.06725,0.625 0.924125,0.625" id="Fill-53" fill="#FFFFFF" mask="url(#mask-10)"></path>
                </g>
            </g>
        </g>
    </g>
</svg>