<?xml version="1.0" encoding="UTF-8"?>
<svg width="22px" height="18px" viewBox="0 0 22 18" version="1.1" xmlns="http://www.w3.org/2000/svg" xmlns:xlink="http://www.w3.org/1999/xlink">
    <!-- Generator: Sketch 52.6 (67491) - http://www.bohemiancoding.com/sketch -->
    <title>Icone - Log out White</title>
    <desc>Created with Sketch.</desc>
    <g id="Page-1" stroke="none" stroke-width="1" fill="none" fill-rule="evenodd">
        <g id="Menu" transform="translate(-16.000000, -628.000000)" fill="#FFFFFF" fill-rule="nonzero">
            <g id="Icone---Log-out-White" transform="translate(16.000000, 628.000000)">
                <path d="M20,1.0658141e-14 L2,1.0658141e-14 C0.9,1.0658141e-14 0,0.9 0,2 L0,5.99 L2,5.99 L2,1.98 L20,1.98 L20,16.01 L2,16.01 L2,11.99 L0,11.99 L0,16 C0,17.1 0.9,17.98 2,17.98 L20,17.98 C21.1,17.98 22,17.1 22,16 L22,2 C22,0.89 21.1,8.8817842e-15 20,1.0658141e-14 Z M10,12.99 L14,8.99 L10,4.99 L10,7.99 L0,7.99 L0,9.99 L10,9.99 L10,12.99 Z M20,1.0658141e-14 L2,1.0658141e-14 C0.9,1.0658141e-14 0,0.9 0,2 L0,5.99 L2,5.99 L2,1.98 L20,1.98 L20,16.01 L2,16.01 L2,11.99 L0,11.99 L0,16 C0,17.1 0.9,17.98 2,17.98 L20,17.98 C21.1,17.98 22,17.1 22,16 L22,2 C22,0.89 21.1,8.8817842e-15 20,1.0658141e-14 Z M10,12.99 L14,8.99 L10,4.99 L10,7.99 L0,7.99 L0,9.99 L10,9.99 L10,12.99 Z" id="Shape"></path>
            </g>
        </g>
    </g>
</svg>