<?xml version="1.0" encoding="UTF-8"?>
<svg width="29px" height="22px" viewBox="0 0 29 22" version="1.1" xmlns="http://www.w3.org/2000/svg" xmlns:xlink="http://www.w3.org/1999/xlink">
    <!-- Generator: Sketch 52.6 (67491) - http://www.bohemiancoding.com/sketch -->
    <title>mc_vrt_pos</title>
    <desc>Created with Sketch.</desc>
    <g id="Page-1" stroke="none" stroke-width="1" fill="none" fill-rule="evenodd">
        <g id="Page---Wallet-Copy" transform="translate(-20.000000, -363.000000)">
            <g id="mc_vrt_pos" transform="translate(16.000000, 359.000000)">
                <rect id="Rectangle" x="0" y="0" width="36" height="30"></rect>
                <path d="M8.74640397,25.8920863 L8.74640397,24.5971223 C8.76388557,24.3768047 8.67197307,24.1605703 8.49411508,24.0035846 C8.31625709,23.8465989 8.06965322,23.764043 7.81721671,23.7769784 C7.48454645,23.7579312 7.1663728,23.8985246 6.98687915,24.1438849 C6.82323245,23.9058401 6.52358992,23.7650552 6.20596645,23.7769784 C5.92941397,23.7647684 5.66613869,23.8813772 5.51401849,24.0834532 L5.51401849,23.828777 L5,23.828777 L5,25.8920863 L5.51896097,25.8920863 L5.51896097,24.7568345 C5.49661065,24.6139763 5.54843738,24.4698612 5.66029808,24.3638172 C5.77215878,24.2577731 5.93237744,24.2008688 6.09723177,24.2086331 C6.43826327,24.2086331 6.61125026,24.4028777 6.61125026,24.752518 L6.61125026,25.9007194 L7.13021123,25.9007194 L7.13021123,24.7568345 C7.10877803,24.6141387 7.16092166,24.4704907 7.27257497,24.3646432 C7.38422827,24.2587957 7.54388814,24.2016538 7.70848203,24.2086331 C8.05939849,24.2086331 8.227443,24.4028777 8.227443,24.752518 L8.227443,25.9007194 L8.74640397,25.8920863 Z M16.4245551,23.828777 L15.5793901,23.828777 L15.5793901,23.2028777 L15.0604291,23.2028777 L15.0604291,23.828777 L14.590893,23.828777 L14.590893,24.2388489 L15.0703141,24.2388489 L15.0703141,25.1884892 C15.0703141,25.6676259 15.282841,25.952518 15.8907667,25.952518 C16.1178884,25.9531843 16.3406089,25.8978225 16.5332898,25.7928057 L16.3850152,25.4086331 C16.2471701,25.4804409 16.0907226,25.5205401 15.9303066,25.5251798 C15.6831823,25.5251798 15.5892751,25.3870503 15.5892751,25.1798561 L15.5892751,24.2388489 L16.4294976,24.2388489 L16.4245551,23.828777 Z M20.8085397,23.7769784 C20.5532399,23.770421 20.314287,23.8863604 20.1857865,24.0791367 L20.1857865,23.828777 L19.6767105,23.828777 L19.6767105,25.8920863 L20.190729,25.8920863 L20.190729,24.7352518 C20.190729,24.3942446 20.3587735,24.2043165 20.6849776,24.2043165 C20.7949192,24.2030031 20.9040817,24.2206039 21.0062391,24.2561151 L21.1643987,23.8244604 C21.0470077,23.7877836 20.9233302,23.7688081 20.7986547,23.7683453 L20.8085397,23.7769784 Z M14.1806667,23.9928057 C13.8897088,23.8417217 13.5551828,23.7668088 13.2168821,23.7769784 C12.6188413,23.7769784 12.228385,24.0273381 12.228385,24.4374101 C12.228385,24.7741007 12.5150491,24.9812949 13.0438951,25.0460431 L13.2910193,25.076259 C13.572741,25.1107913 13.7061881,25.1755395 13.7061881,25.2920863 C13.7061881,25.4517985 13.5183737,25.542446 13.1674572,25.542446 C12.8851925,25.5495817 12.6083888,25.4735603 12.381602,25.3266187 L12.1344777,25.676259 C12.4338969,25.8588469 12.7925256,25.9526587 13.1575722,25.9438849 C13.8396352,25.9438849 14.2350341,25.6633093 14.2350341,25.2705036 C14.2350341,24.8776978 13.9236575,24.7179856 13.409639,24.6532374 L13.1625147,24.6230216 C12.9401029,24.5971223 12.7621734,24.5582734 12.7621734,24.4201439 C12.7621734,24.2820144 12.9302179,24.1784173 13.2119396,24.1784173 C13.4723284,24.181059 13.7275881,24.2419939 13.9533124,24.3553957 L14.1806667,23.9928057 Z M27.9479599,23.7769784 C27.6926601,23.770421 27.4537072,23.8863604 27.3252068,24.0791367 L27.3252068,23.828777 L26.8161308,23.828777 L26.8161308,25.8920863 L27.3301493,25.8920863 L27.3301493,24.7352518 C27.3301493,24.3942446 27.4981938,24.2043165 27.8243978,24.2043165 C27.9343395,24.2030031 28.0435019,24.2206039 28.1456594,24.2561151 L28.3038189,23.8244604 C28.1864279,23.7877836 28.0627504,23.7688081 27.938075,23.7683453 L27.9479599,23.7769784 Z M21.3250294,24.8561151 C21.3126677,25.1493025 21.4423405,25.4334667 21.6822188,25.6388579 C21.9220972,25.8442492 22.2499716,25.9518509 22.5853632,25.9352518 C22.8939914,25.9489654 23.1973008,25.8611798 23.4354707,25.6892086 L23.1883464,25.3266187 C23.0106569,25.4449592 22.7939813,25.510056 22.5705358,25.5122302 C22.1765457,25.4843892 21.8730493,25.1970164 21.8730493,24.8517985 C21.8730493,24.5065807 22.1765457,24.2192079 22.5705358,24.1913669 C22.7939813,24.1935411 23.0106569,24.2586379 23.1883464,24.3769784 L23.4354707,24.0143885 C23.1973008,23.8424173 22.8939914,23.7546317 22.5853632,23.7683453 C22.2499716,23.7517461 21.9220972,23.8593479 21.6822188,24.0647391 C21.4423405,24.2701304 21.3126677,24.5542946 21.3250294,24.847482 L21.3250294,24.8561151 Z M26.1390103,24.8561151 L26.1390103,23.828777 L25.6249918,23.828777 L25.6249918,24.0791367 C25.4479033,23.8801331 25.1720071,23.7676872 24.883619,23.7769784 C24.2012041,23.7769784 23.6479976,24.2601244 23.6479976,24.8561151 C23.6479976,25.4521058 24.2012041,25.9352518 24.883619,25.9352518 C25.1720071,25.944543 25.4479033,25.8320971 25.6249918,25.6330935 L25.6249918,25.8834532 L26.1390103,25.8834532 L26.1390103,24.8561151 Z M24.2262684,24.8561151 C24.2491262,24.5174105 24.5777883,24.256786 24.9660078,24.269512 C25.3542274,24.2822381 25.6595947,24.5636465 25.6533162,24.9028946 C25.6470376,25.2421426 25.3314164,25.5147849 24.9429288,25.5165467 C24.7451155,25.5187327 24.5552462,25.4486643 24.4191643,25.3232592 C24.2830823,25.1978542 24.2131559,25.0285103 24.2262684,24.8561151 Z M18.0234492,23.7769784 C17.3410343,23.7853223 16.7955727,24.2752323 16.8051265,24.871223 C16.8146803,25.4672137 17.3756317,25.9435956 18.0580466,25.9352518 C18.413594,25.9511904 18.7632417,25.8511962 19.0391299,25.6546762 L18.7920056,25.3223021 C18.5968669,25.458981 18.3551151,25.5349289 18.1050002,25.5381295 C17.751703,25.5646655 17.4384023,25.3407922 17.3982247,25.0330935 L19.1528071,25.0330935 C19.1528071,24.9769784 19.1528071,24.9208633 19.1528071,24.8604316 C19.1528071,24.2129496 18.6931559,23.781295 18.0308629,23.781295 L18.0234492,23.7769784 Z M18.0234492,24.1784173 C18.1787922,24.1755248 18.329085,24.2266611 18.4412471,24.3205706 C18.5534091,24.4144801 18.6182472,24.5434657 18.6214899,24.6791367 L17.3858685,24.6791367 C17.404484,24.3909691 17.6832772,24.1685728 18.0135642,24.1784173 L18.0234492,24.1784173 Z M30.901095,24.8604316 L30.901095,23 L30.4068464,23 L30.4068464,24.0791367 C30.229758,23.8801331 29.9538618,23.7676872 29.6654736,23.7769784 C28.9830588,23.7769784 28.4298523,24.2601244 28.4298523,24.8561151 C28.4298523,25.4521058 28.9830588,25.9352518 29.6654736,25.9352518 C29.9538618,25.944543 30.229758,25.8320971 30.4068464,25.6330935 L30.4068464,25.8834532 L30.901095,25.8834532 L30.901095,24.8604316 Z M31.7586162,25.5920863 C31.7907456,25.5917425 31.8226433,25.5968743 31.8525234,25.6071942 C31.8809039,25.6173088 31.906882,25.6319463 31.929132,25.6503597 C31.9508466,25.6689686 31.9684402,25.6909193 31.9810281,25.7151079 C32.006324,25.7660533 32.006324,25.8238747 31.9810281,25.8748201 C31.9684402,25.8990087 31.9508466,25.9209594 31.929132,25.9395683 C31.906882,25.9579817 31.8809039,25.9726192 31.8525234,25.9827338 C31.8229383,25.9941349 31.7909535,26.0000158 31.7586162,26 C31.6629914,25.9993705 31.5763652,25.9506147 31.5362044,25.8748201 C31.5112013,25.8238219 31.5112013,25.7661061 31.5362044,25.7151079 C31.5487922,25.6909193 31.5663859,25.6689686 31.5881005,25.6503597 C31.6103504,25.6319463 31.6363286,25.6173088 31.664709,25.6071942 C31.6968969,25.5960118 31.7314172,25.5908646 31.7660299,25.5920863 L31.7586162,25.5920863 Z M31.7586162,25.9568345 C31.7832816,25.9569654 31.8077013,25.9525528 31.8302823,25.9438849 C31.8515439,25.9355944 31.8708265,25.9238792 31.8871208,25.9093525 C31.9511994,25.8482934 31.9511994,25.7545842 31.8871208,25.6935252 C31.8708654,25.6789583 31.8515734,25.6672375 31.8302823,25.6589928 C31.8076791,25.6503859 31.7832742,25.6459761 31.7586162,25.6460431 C31.7339795,25.6461568 31.7096159,25.6505592 31.6869502,25.6589928 C31.6647472,25.6669439 31.6445837,25.6786838 31.6276404,25.6935252 C31.5635618,25.7545842 31.5635618,25.8482934 31.6276404,25.9093525 C31.6446253,25.9241495 31.6647781,25.9358832 31.6869502,25.9438849 C31.7118825,25.9532751 31.7388961,25.9576987 31.7660299,25.9568345 L31.7586162,25.9568345 Z M31.7734437,25.7 C31.7965131,25.6990229 31.8192459,25.7051318 31.837696,25.7172662 C31.853043,25.7283588 31.8613239,25.7452339 31.8599372,25.7625899 C31.8606546,25.7770838 31.8543795,25.7911762 31.8426385,25.8014388 C31.8283147,25.8128013 31.8100419,25.8196406 31.7907424,25.8208633 L31.8624084,25.8920863 L31.8055698,25.8920863 L31.7388463,25.8208633 L31.7166051,25.8208633 L31.7166051,25.8920863 L31.6696515,25.8920863 L31.6696515,25.7021582 L31.7734437,25.7 Z M31.7190763,25.7366906 L31.7190763,25.7884892 L31.7734437,25.7884892 C31.7831182,25.7910083 31.793424,25.7910083 31.8030986,25.7884892 C31.8066233,25.7823802 31.8066233,25.7751737 31.8030986,25.7690647 C31.8066233,25.7629558 31.8066233,25.7557492 31.8030986,25.7496403 C31.793424,25.7471212 31.7831182,25.7471212 31.7734437,25.7496403 L31.7190763,25.7366906 Z M29.0007093,24.8604316 C29.0235671,24.521727 29.3522293,24.2611025 29.7404488,24.2738286 C30.1286683,24.2865547 30.4340356,24.567963 30.4277571,24.9072111 C30.4214786,25.2464592 30.1058574,25.5191015 29.7173697,25.5208633 C29.5195564,25.5230492 29.3296872,25.4529808 29.1936052,25.3275758 C29.0575232,25.2021707 28.9875968,25.0328269 29.0007093,24.8604316 Z M11.6451717,24.8604316 L11.6451717,23.828777 L11.1311532,23.828777 L11.1311532,24.0791367 C10.9540648,23.8801331 10.6781685,23.7676872 10.3897804,23.7769784 C9.70736555,23.7769784 9.15415902,24.2601244 9.15415902,24.8561151 C9.15415902,25.4521058 9.70736555,25.9352518 10.3897804,25.9352518 C10.6781685,25.944543 10.9540648,25.8320971 11.1311532,25.6330935 L11.1311532,25.8834532 L11.6451717,25.8834532 L11.6451717,24.8604316 Z M9.73242982,24.8604316 C9.75528758,24.521727 10.0839497,24.2611025 10.4721693,24.2738286 C10.8603888,24.2865547 11.1657561,24.567963 11.1594776,24.9072111 C11.1531991,25.2464592 10.8375779,25.5191015 10.4490902,25.5208633 C10.2504244,25.5242695 10.0592334,25.4547353 9.92205536,25.3291861 C9.78487736,25.2036368 9.71429443,25.033588 9.72748733,24.8604316 L9.73242982,24.8604316 Z" id="Shape" fill="#231F20" fill-rule="nonzero"></path>
                <g id="_Group_" transform="translate(4.000000, 4.000000)">
                    <rect id="Rectangle" fill="#FF5F00" x="10.5713675" y="1.93561644" width="7.80769231" height="13.9586301"></rect>
                    <path d="M11.067094,8.91616438 C11.0641748,6.1918748 12.3209955,3.61764105 14.4752137,1.93561644 C10.8167002,-0.924644766 5.56292805,-0.508022987 2.40610717,2.89269119 C-0.750713712,6.29340536 -0.750713712,11.5364577 2.40610717,14.9371718 C5.56292805,18.337886 10.8167002,18.7545078 14.4752137,15.8942466 C12.3216808,14.2127559 11.0649369,11.6395887 11.067094,8.91616438 Z" id="_Path_" fill="#EB001B"></path>
                    <path d="M28.9132479,8.91616438 C28.9131682,12.3148061 26.9624206,15.4150645 23.8894949,16.9002478 C20.8165692,18.3854311 17.1609581,17.994796 14.4752137,15.8942466 C16.6278069,14.2113284 17.8846454,11.6385032 17.8846454,8.91493151 C17.8846454,6.19135977 16.6278069,3.61853462 14.4752137,1.93561644 C17.1609581,-0.164932971 20.8165692,-0.555568132 23.8894949,0.929615207 C26.9624206,2.41479855 28.9131682,5.51505689 28.9132479,8.91369863 L28.9132479,8.91616438 Z" id="Path" fill="#F79E1B"></path>
                    <path d="M28.1226377,15.0624968 L28.1226377,14.2398018 L28.2796314,14.2398018 L28.2796314,14.069589 L27.8821368,14.069589 L27.8821368,14.2398018 L28.0524916,14.2398018 L28.0524916,15.0624968 L28.1226377,15.0624968 Z M28.894245,15.0624968 L28.894245,14.069589 L28.7739945,14.069589 L28.6337023,14.7788089 L28.4934101,14.069589 L28.3865207,14.069589 L28.3865207,15.0624968 L28.4733683,15.0624968 L28.4733683,14.317816 L28.6036397,14.9632061 L28.6938275,14.9632061 L28.8240989,14.317816 L28.8240989,15.069589 L28.894245,15.0624968 Z" id="Shape" fill="#F79E1B" fill-rule="nonzero"></path>
                </g>
            </g>
        </g>
    </g>
</svg>