<?xml version="1.0" encoding="UTF-8"?>
<svg width="59px" height="59px" viewBox="0 0 59 59" version="1.1" xmlns="http://www.w3.org/2000/svg" xmlns:xlink="http://www.w3.org/1999/xlink">
    <!-- Generator: Sketch 52.6 (67491) - http://www.bohemiancoding.com/sketch -->
    <title>Icone - Profil White</title>
    <desc>Created with Sketch.</desc>
    <g id="Page-1" stroke="none" stroke-width="1" fill="none" fill-rule="evenodd">
        <g id="Menu" transform="translate(-16.000000, -53.000000)" fill="#F2F1F1" fill-rule="nonzero">
            <g id="Icone---Profil-White" transform="translate(16.000000, 53.000000)">
                <path d="M29.5,0 C13.216,0 0,13.216 0,29.5 C0,45.784 13.216,59 29.5,59 C45.784,59 59,45.784 59,29.5 C59,13.216 45.784,0 29.5,0 Z M14.9565,48.026 C16.225,45.371 23.954,42.775 29.5,42.775 C35.046,42.775 42.8045,45.371 44.0435,48.026 C40.0315,51.212 34.987,53.1 29.5,53.1 C24.013,53.1 18.9685,51.212 14.9565,48.026 Z M48.262,43.7485 C44.0435,38.6155 33.807,36.875 29.5,36.875 C25.193,36.875 14.9565,38.6155 10.738,43.7485 C7.729,39.7955 5.9,34.869 5.9,29.5 C5.9,16.4905 16.4905,5.9 29.5,5.9 C42.5095,5.9 53.1,16.4905 53.1,29.5 C53.1,34.869 51.271,39.7955 48.262,43.7485 Z M29.5,11.8 C23.777,11.8 19.175,16.402 19.175,22.125 C19.175,27.848 23.777,32.45 29.5,32.45 C35.223,32.45 39.825,27.848 39.825,22.125 C39.825,16.402 35.223,11.8 29.5,11.8 Z M29.5,26.55 C27.0515,26.55 25.075,24.5735 25.075,22.125 C25.075,19.6765 27.0515,17.7 29.5,17.7 C31.9485,17.7 33.925,19.6765 33.925,22.125 C33.925,24.5735 31.9485,26.55 29.5,26.55 Z" id="Shape"></path>
            </g>
        </g>
    </g>
</svg>