<?xml version="1.0" encoding="UTF-8"?>
<svg width="30px" height="10px" viewBox="0 0 30 10" version="1.1" xmlns="http://www.w3.org/2000/svg" xmlns:xlink="http://www.w3.org/1999/xlink">
    <!-- Generator: Sketch 52.6 (67491) - http://www.bohemiancoding.com/sketch -->
    <title>Group 13</title>
    <desc>Created with Sketch.</desc>
    <defs>
        <path d="M4.80914622,0.0501583821 C4.21913201,0.0501583821 3.87622061,0.280718811 3.6474464,0.831340156 C2.5910527,3.37350146 1.53454792,5.91566277 0.478598553,8.4579922 C0.330914492,8.81336014 0.185507621,9.16962476 0.0319361922,9.54281433 C0.874662878,9.54281433 1.69372901,9.54466374 2.5127396,9.53743421 C2.55583958,9.53709795 2.61887884,9.46766082 2.63787393,9.41711014 C2.77794885,9.04448099 2.91485792,8.67033869 3.03999225,8.29238548 C3.08187032,8.16595273 3.13652286,8.12010965 3.27404288,8.12123051 C4.18269698,8.12851608 5.09157324,8.13143031 6.00011625,8.11960526 C6.18218032,8.11725146 6.23433351,8.18102827 6.26349264,8.34568226 C6.33369672,8.74229776 6.42261819,9.13560673 6.50548566,9.53760234 L8.77140015,9.53760234 L8.77140015,9.47007066 C8.69819685,9.14967349 8.61949496,8.83034113 8.55273444,8.50854288 C8.03181348,5.99647661 7.51344743,3.4838499 6.99374839,0.971503411 C6.93048695,0.665453216 6.8642263,0.360019493 6.79852105,0.0501583821 C6.34897055,0.0501583821 5.90686257,0.0501023392 5.46730948,0.0501023392 C5.24753294,0.0501023392 5.02831181,0.0501583821 4.80914622,0.0501583821 M5.0586373,2.68708821 C5.06835701,2.68899366 5.07813227,2.69089912 5.08785198,2.69280458 C5.3260682,3.84538255 5.56433996,4.99790448 5.80583312,6.16611842 L3.80868251,6.16611842 C4.22840739,4.99790448 4.64352235,3.84246832 5.0586373,2.68708821" id="path-1"></path>
        <linearGradient x1="-225.12645%" y1="51.8196562%" x2="98.1930842%" y2="49.8436978%" id="linearGradient-3">
            <stop stop-color="#262860" offset="0%"></stop>
            <stop stop-color="#3D439A" offset="100%"></stop>
        </linearGradient>
        <path d="M4.62653817,0.05 C4.57938624,0.0615909091 4.53284958,0.0782386364 4.48497052,0.0840909091 C3.62348299,0.190113636 2.81479667,0.4425 2.13375057,1.01113636 C1.35090552,1.66471591 0.972515495,2.50585227 1.08220106,3.54176136 C1.15547392,4.23363636 1.5418065,4.75414773 2.07524414,5.14454545 C2.4914452,5.44909091 2.95860166,5.68102273 3.39835072,5.95318182 C3.67997581,6.12738636 3.97698262,6.28772727 4.22409675,6.50477273 C4.60008163,6.83505682 4.56048073,7.36346591 4.14757974,7.64465909 C3.9572381,7.77426136 3.72835828,7.87494318 3.50384127,7.91761364 C2.6409554,8.08181818 1.80844142,7.93090909 1.00221618,7.60096591 C0.833520786,7.531875 0.668349206,7.45363636 0.492494331,7.375625 C0.342424792,8.08954545 0.196438398,8.78403409 0.0506198035,9.47744318 C0.0814950869,9.49698864 0.0990582011,9.51176136 0.119138322,9.52011364 C0.186538171,9.54818182 0.25393802,9.57693182 0.32312774,9.60005682 C1.11995616,9.86596591 1.93261376,9.99982955 2.75880726,10 L2.7635616,10 C3.00575359,9.99988636 3.24912018,9.98835227 3.49354951,9.96522727 C4.26705367,9.89210227 5.00929101,9.69465909 5.66516704,9.25261364 C6.70832653,8.54965909 7.16759637,7.55607955 7.01277249,6.29465909 C6.92529252,5.58147727 6.50853212,5.05392045 5.93705971,4.67028409 C5.45183673,4.34448864 4.92762812,4.07926136 4.4283099,3.77426136 C4.20871504,3.64005682 3.98895238,3.49448864 3.80353288,3.31710227 C3.53460469,3.05982955 3.53835223,2.70710227 3.81997732,2.46204545 C3.98403023,2.31914773 4.19506727,2.20585227 4.4035873,2.14681818 C4.91644142,2.00159091 5.44182464,2.04545455 5.95445503,2.16045455 C6.32932124,2.24443182 6.69395163,2.37534091 7.07547392,2.48892045 C7.21469237,1.82778409 7.35693122,1.15204545 7.50269388,0.459602273 C7.21351776,0.375965909 6.94716251,0.287102273 6.67499017,0.223352273 C6.3768647,0.153465909 6.07342555,0.106761364 5.77227967,0.05 L4.62653817,0.05 Z" id="path-4"></path>
        <linearGradient x1="-173.816305%" y1="51.1153734%" x2="208.035696%" y2="49.2041103%" id="linearGradient-6">
            <stop stop-color="#262860" offset="0%"></stop>
            <stop stop-color="#3D439A" offset="100%"></stop>
        </linearGradient>
        <path d="M8.7837448,0.195589669 C7.98868239,2.2389693 7.18929265,4.2806116 6.39018031,6.32247807 C6.3749792,6.36131579 6.35167822,6.39690302 6.31833564,6.46023148 C6.29697642,6.35380604 6.28088766,6.27859649 6.26674064,6.20305068 C5.94413315,4.47485624 5.62446602,2.74615741 5.2978086,1.01874756 C5.18246879,0.408552632 4.74191401,0.0504385965 4.13165049,0.0502704678 C2.84499307,0.0498221248 1.55833564,0.0501583821 0.271733703,0.0501583821 C0.00360610264,0.0501583821 0.00360610264,0.0501583821 0,0.334856238 C0.0299029126,0.342422027 0.0616366158,0.35082846 0.0935367545,0.358450292 C0.813980583,0.53128655 1.52022191,0.743857212 2.20061026,1.04648879 C2.62507628,1.23535331 2.85137309,1.54302875 2.96443828,1.99344542 C3.580638,4.44885234 4.21431345,6.89983187 4.83755895,9.35333333 C4.87345354,9.49461745 4.92427184,9.54981969 5.08016644,9.54763402 C5.81520111,9.53732212 6.55056865,9.53978801 7.28571429,9.54600877 C7.42008322,9.54707359 7.48771151,9.51199074 7.5429681,9.37816033 C8.70307906,6.56901072 9.86940361,3.76260721 11.0342302,0.955587232 C11.1562275,0.661586257 11.2765603,0.366912768 11.4037725,0.0578923002 C11.3354785,0.0546418129 11.2872122,0.0503825536 11.2390014,0.0503825536 C11.0278502,0.0503265107 10.816699,0.0504385965 10.6055479,0.0506067251 C10.0702913,0.0509990253 9.53503467,0.0513913255 8.99983356,0.0471320663 C8.99828017,0.0471320663 8.99678225,0.0470760234 8.99528433,0.0470760234 C8.8792233,0.0470760234 8.8265742,0.0854093567 8.7837448,0.195589669" id="path-7"></path>
        <linearGradient x1="14.7491674%" y1="50.1527931%" x2="262.250493%" y2="48.1784358%" id="linearGradient-9">
            <stop stop-color="#262860" offset="0%"></stop>
            <stop stop-color="#3D439A" offset="100%"></stop>
        </linearGradient>
        <path d="M2.03661523,0.00422794118 C1.37623196,3.18144118 0.717546043,6.35093137 0.0541513191,9.54280147 L0.251757093,9.54280147 C0.911428571,9.54280147 1.5711548,9.53490931 2.23055251,9.54793137 C2.41446989,9.55165196 2.47721752,9.49364461 2.51466899,9.31122304 C3.05377302,6.6856152 3.60092583,4.06164216 4.14599801,1.43733088 C4.2445545,0.962786765 4.34250871,0.488129902 4.44265306,0.00422794118 L2.03661523,0.00422794118 Z" id="path-10"></path>
        <linearGradient x1="-196.71137%" y1="50.7610462%" x2="438.031562%" y2="48.7840746%" id="linearGradient-12">
            <stop stop-color="#262860" offset="0%"></stop>
            <stop stop-color="#3D439A" offset="100%"></stop>
        </linearGradient>
    </defs>
    <g id="Page-1" stroke="none" stroke-width="1" fill="none" fill-rule="evenodd">
        <g id="Page---Wallet-Copy" transform="translate(-19.000000, -408.000000)">
            <g id="Group-13" transform="translate(19.000000, 408.000000)">
                <g id="Group-3" transform="translate(21.224490, 0.208333)">
                    <mask id="mask-2" fill="white">
                        <use xlink:href="#path-1"></use>
                    </mask>
                    <g id="Clip-2"></g>
                    <path d="M4.80914622,0.0501583821 C4.21913201,0.0501583821 3.87622061,0.280718811 3.6474464,0.831340156 C2.5910527,3.37350146 1.53454792,5.91566277 0.478598553,8.4579922 C0.330914492,8.81336014 0.185507621,9.16962476 0.0319361922,9.54281433 C0.874662878,9.54281433 1.69372901,9.54466374 2.5127396,9.53743421 C2.55583958,9.53709795 2.61887884,9.46766082 2.63787393,9.41711014 C2.77794885,9.04448099 2.91485792,8.67033869 3.03999225,8.29238548 C3.08187032,8.16595273 3.13652286,8.12010965 3.27404288,8.12123051 C4.18269698,8.12851608 5.09157324,8.13143031 6.00011625,8.11960526 C6.18218032,8.11725146 6.23433351,8.18102827 6.26349264,8.34568226 C6.33369672,8.74229776 6.42261819,9.13560673 6.50548566,9.53760234 L8.77140015,9.53760234 L8.77140015,9.47007066 C8.69819685,9.14967349 8.61949496,8.83034113 8.55273444,8.50854288 C8.03181348,5.99647661 7.51344743,3.4838499 6.99374839,0.971503411 C6.93048695,0.665453216 6.8642263,0.360019493 6.79852105,0.0501583821 C6.34897055,0.0501583821 5.90686257,0.0501023392 5.46730948,0.0501023392 C5.24753294,0.0501023392 5.02831181,0.0501583821 4.80914622,0.0501583821 M5.0586373,2.68708821 C5.06835701,2.68899366 5.07813227,2.69089912 5.08785198,2.69280458 C5.3260682,3.84538255 5.56433996,4.99790448 5.80583312,6.16611842 L3.80868251,6.16611842 C4.22840739,4.99790448 4.64352235,3.84246832 5.0586373,2.68708821" id="Fill-1" fill="url(#linearGradient-3)" mask="url(#mask-2)"></path>
                </g>
                <g id="Group-6" transform="translate(14.489796, 0.000000)">
                    <mask id="mask-5" fill="white">
                        <use xlink:href="#path-4"></use>
                    </mask>
                    <g id="Clip-5"></g>
                    <path d="M4.62653817,0.05 C4.57938624,0.0615909091 4.53284958,0.0782386364 4.48497052,0.0840909091 C3.62348299,0.190113636 2.81479667,0.4425 2.13375057,1.01113636 C1.35090552,1.66471591 0.972515495,2.50585227 1.08220106,3.54176136 C1.15547392,4.23363636 1.5418065,4.75414773 2.07524414,5.14454545 C2.4914452,5.44909091 2.95860166,5.68102273 3.39835072,5.95318182 C3.67997581,6.12738636 3.97698262,6.28772727 4.22409675,6.50477273 C4.60008163,6.83505682 4.56048073,7.36346591 4.14757974,7.64465909 C3.9572381,7.77426136 3.72835828,7.87494318 3.50384127,7.91761364 C2.6409554,8.08181818 1.80844142,7.93090909 1.00221618,7.60096591 C0.833520786,7.531875 0.668349206,7.45363636 0.492494331,7.375625 C0.342424792,8.08954545 0.196438398,8.78403409 0.0506198035,9.47744318 C0.0814950869,9.49698864 0.0990582011,9.51176136 0.119138322,9.52011364 C0.186538171,9.54818182 0.25393802,9.57693182 0.32312774,9.60005682 C1.11995616,9.86596591 1.93261376,9.99982955 2.75880726,10 L2.7635616,10 C3.00575359,9.99988636 3.24912018,9.98835227 3.49354951,9.96522727 C4.26705367,9.89210227 5.00929101,9.69465909 5.66516704,9.25261364 C6.70832653,8.54965909 7.16759637,7.55607955 7.01277249,6.29465909 C6.92529252,5.58147727 6.50853212,5.05392045 5.93705971,4.67028409 C5.45183673,4.34448864 4.92762812,4.07926136 4.4283099,3.77426136 C4.20871504,3.64005682 3.98895238,3.49448864 3.80353288,3.31710227 C3.53460469,3.05982955 3.53835223,2.70710227 3.81997732,2.46204545 C3.98403023,2.31914773 4.19506727,2.20585227 4.4035873,2.14681818 C4.91644142,2.00159091 5.44182464,2.04545455 5.95445503,2.16045455 C6.32932124,2.24443182 6.69395163,2.37534091 7.07547392,2.48892045 C7.21469237,1.82778409 7.35693122,1.15204545 7.50269388,0.459602273 C7.21351776,0.375965909 6.94716251,0.287102273 6.67499017,0.223352273 C6.3768647,0.153465909 6.07342555,0.106761364 5.77227967,0.05 L4.62653817,0.05 Z" id="Fill-4" fill="url(#linearGradient-6)" mask="url(#mask-5)"></path>
                </g>
                <g id="Group-9" transform="translate(0.000000, 0.208333)">
                    <mask id="mask-8" fill="white">
                        <use xlink:href="#path-7"></use>
                    </mask>
                    <g id="Clip-8"></g>
                    <path d="M8.7837448,0.195589669 C7.98868239,2.2389693 7.18929265,4.2806116 6.39018031,6.32247807 C6.3749792,6.36131579 6.35167822,6.39690302 6.31833564,6.46023148 C6.29697642,6.35380604 6.28088766,6.27859649 6.26674064,6.20305068 C5.94413315,4.47485624 5.62446602,2.74615741 5.2978086,1.01874756 C5.18246879,0.408552632 4.74191401,0.0504385965 4.13165049,0.0502704678 C2.84499307,0.0498221248 1.55833564,0.0501583821 0.271733703,0.0501583821 C0.00360610264,0.0501583821 0.00360610264,0.0501583821 0,0.334856238 C0.0299029126,0.342422027 0.0616366158,0.35082846 0.0935367545,0.358450292 C0.813980583,0.53128655 1.52022191,0.743857212 2.20061026,1.04648879 C2.62507628,1.23535331 2.85137309,1.54302875 2.96443828,1.99344542 C3.580638,4.44885234 4.21431345,6.89983187 4.83755895,9.35333333 C4.87345354,9.49461745 4.92427184,9.54981969 5.08016644,9.54763402 C5.81520111,9.53732212 6.55056865,9.53978801 7.28571429,9.54600877 C7.42008322,9.54707359 7.48771151,9.51199074 7.5429681,9.37816033 C8.70307906,6.56901072 9.86940361,3.76260721 11.0342302,0.955587232 C11.1562275,0.661586257 11.2765603,0.366912768 11.4037725,0.0578923002 C11.3354785,0.0546418129 11.2872122,0.0503825536 11.2390014,0.0503825536 C11.0278502,0.0503265107 10.816699,0.0504385965 10.6055479,0.0506067251 C10.0702913,0.0509990253 9.53503467,0.0513913255 8.99983356,0.0471320663 C8.99828017,0.0471320663 8.99678225,0.0470760234 8.99528433,0.0470760234 C8.8792233,0.0470760234 8.8265742,0.0854093567 8.7837448,0.195589669" id="Fill-7" fill="url(#linearGradient-9)" mask="url(#mask-8)"></path>
                </g>
                <g id="Group-12" transform="translate(10.408163, 0.208333)">
                    <mask id="mask-11" fill="white">
                        <use xlink:href="#path-10"></use>
                    </mask>
                    <g id="Clip-11"></g>
                    <path d="M2.03661523,0.00422794118 C1.37623196,3.18144118 0.717546043,6.35093137 0.0541513191,9.54280147 L0.251757093,9.54280147 C0.911428571,9.54280147 1.5711548,9.53490931 2.23055251,9.54793137 C2.41446989,9.55165196 2.47721752,9.49364461 2.51466899,9.31122304 C3.05377302,6.6856152 3.60092583,4.06164216 4.14599801,1.43733088 C4.2445545,0.962786765 4.34250871,0.488129902 4.44265306,0.00422794118 L2.03661523,0.00422794118 Z" id="Fill-10" fill="url(#linearGradient-12)" mask="url(#mask-11)"></path>
                </g>
            </g>
        </g>
    </g>
</svg>