<?xml version="1.0" encoding="UTF-8"?>
<svg width="192px" height="81px" viewBox="0 0 192 81" version="1.1" xmlns="http://www.w3.org/2000/svg" xmlns:xlink="http://www.w3.org/1999/xlink">
    <!-- Generator: Sketch 52.6 (67491) - http://www.bohemiancoding.com/sketch -->
    <title>Group 43</title>
    <desc>Created with Sketch.</desc>
    <defs>
        <polygon id="path-1" points="0.966039823 0.292931507 124.133075 0.292931507 124.133075 80.9995562 0.966039823 80.9995562"></polygon>
        <polygon id="path-3" points="0 0.0846964286 47.1703806 0.0846964286 47.1703806 61.4835179 0 61.4835179"></polygon>
        <polygon id="path-5" points="0 81 192 81 192 0 0 0"></polygon>
    </defs>
    <g id="Page-1" stroke="none" stroke-width="1" fill="none" fill-rule="evenodd">
        <g id="Page---registration-form-POP-UP-Wristband" transform="translate(-92.000000, -198.000000)">
            <g id="Group-43" transform="translate(92.000000, 198.000000)">
                <g id="Group-3" transform="translate(33.000000, 0.000000)">
                    <mask id="mask-2" fill="white">
                        <use xlink:href="#path-1"></use>
                    </mask>
                    <g id="Clip-2"></g>
                    <path d="M2.63639381,17.3590767 L2.63528761,17.3590767 C1.73042035,17.3590767 0.99590708,16.6212 0.99590708,15.7124466 L1.00254425,5.65180274 C1.00254425,2.69807671 3.37643805,0.292487671 6.29347345,0.292487671 L118.847677,0.353515068 C121.761394,0.353515068 124.133075,2.75910411 124.133075,5.71726849 L124.129757,14.7238027 C124.129757,15.6314466 123.394137,16.3671041 122.488164,16.3671041 L122.487058,16.3671041 C121.58219,16.3671041 120.848783,15.630337 120.848783,14.720474 L120.853208,5.7161589 C120.853208,4.57550137 119.952765,3.64455616 118.845465,3.64455616 L6.29236726,3.58352877 C5.18506637,3.58352877 4.2835177,4.51225479 4.2835177,5.65291233 L4.27688053,15.7157753 C4.27688053,16.6234192 3.54126106,17.3590767 2.63639381,17.3590767 M118.804535,80.9995562 L6.25254425,80.9385288 C3.33882743,80.9385288 0.966039823,78.5329397 0.966039823,75.5747753 L0.970464602,66.5094329 C0.970464602,65.601789 1.70608407,64.8650219 2.61095133,64.8650219 L2.61316372,64.8650219 C3.51803097,64.8650219 4.25143805,65.6028986 4.25143805,66.5127616 L4.24701327,75.5769945 C4.24701327,76.7176521 5.14745575,77.6474877 6.25365044,77.6474877 L118.805642,77.7096247 C119.914049,77.7096247 120.815597,76.7808986 120.815597,75.6391315 L120.821128,65.0281315 C120.821128,64.1182685 121.555642,63.382611 122.461615,63.382611 C123.367588,63.382611 124.102102,64.1204877 124.102102,65.0281315 L124.096571,75.6391315 C124.096571,78.5950767 121.722677,80.9995562 118.804535,80.9995562" id="Fill-1" fill="#000000" mask="url(#mask-2)"></path>
                </g>
                <g id="Group-6" transform="translate(0.000000, 6.000000)">
                    <mask id="mask-4" fill="white">
                        <use xlink:href="#path-3"></use>
                    </mask>
                    <g id="Clip-5"></g>
                    <path d="M46.5741767,9.96594643 C46.5641302,9.12783929 45.9178047,8.43144643 45.0772465,8.35173214 C26.5749209,6.59026786 11.4906419,3.78144643 -0.000334883721,0.0846964286 L-0.000334883721,3.52569643 C13.0366884,7.58226786 28.6813395,10.0279464 43.2811535,11.4760893 L43.8370605,57.9306964 C26.2299907,55.2480893 11.4247814,51.4107321 -0.000334883721,46.790625 L-0.000334883721,50.4851607 C11.8456186,55.0687321 27.0448744,58.8042321 45.2737116,61.4658036 C45.3552,61.476875 45.4344558,61.4835179 45.5148279,61.4835179 C45.9133395,61.4835179 46.3006884,61.3406964 46.6043163,61.0783036 C46.9704558,60.7616607 47.1758512,60.3033036 47.1702698,59.8228036 L46.5741767,9.96594643 Z" id="Fill-4" fill="#000000" mask="url(#mask-4)"></path>
                </g>
                <path d="M192,51.6735482 C180.926595,57.8394302 165.45731,62.5273107 147.758487,64.5406599 L147.302824,17.9687139 C166.043797,15.7014884 181.062961,12.1781273 192,7.57855159 L192,4 C181.044114,8.83799865 165.326487,12.5810179 145.453561,14.891292 C144.617623,14.9895311 143.991224,15.6970732 144.000093,16.5337611 L144.487908,66.3785033 C144.492343,66.838792 144.691904,67.2770045 145.037809,67.5838637 C145.338259,67.8520895 145.730728,68 146.132067,68 C146.188609,68 146.244043,67.9966886 146.300585,67.9911695 C164.502744,66.1224194 180.304631,61.5581656 192,55.379038 L192,51.6735482 Z" id="Fill-7" fill="#000000"></path>
                <polygon id="Fill-9" fill="#000000" points="54.2210653 33 54.9477893 36.4356417 55.1072884 37.3920967 55.2657311 36.4552081 55.8878829 33 57.1026105 33 57.7564509 36.4356417 57.9244002 37.3920967 58.0934058 36.4736236 58.8275238 33 60 33 58.4504301 39 57.3487249 39 56.6832654 35.4918473 56.488909 34.3316708 56.2945526 35.4918473 55.6301494 39 54.5611891 39 53 33"></polygon>
                <path d="M62.2526489,34.0416267 L62.2526489,35.6541339 L63.6324464,35.6541339 C63.9067577,35.6541339 64.1127855,35.6219068 64.2493525,35.5563016 C64.4918766,35.4423556 64.6131387,35.2167658 64.6131387,34.8806829 C64.6131387,34.5169768 64.4954085,34.2729714 64.2611255,34.1475158 C64.1292677,34.0773067 63.9326583,34.0416267 63.6677655,34.0416267 L62.2526489,34.0416267 Z M64.9027549,33.1542298 C65.1287968,33.2497602 65.320697,33.3890274 65.4772781,33.5731824 C65.6079586,33.7262613 65.7115611,33.8943027 65.7857311,34.0784577 C65.8610784,34.2626127 65.8999294,34.47324 65.8999294,34.7091886 C65.8999294,34.9946288 65.8257594,35.2743142 65.6785967,35.5505467 C65.531434,35.8256282 65.2889098,36.020142 64.9510243,36.1340879 C65.2335766,36.2457318 65.4337179,36.4034145 65.5526254,36.608287 C65.6703555,36.8131594 65.7292206,37.1262229 65.7292206,37.5463265 L65.7292206,37.9503165 C65.7292206,38.2242471 65.7409936,38.409553 65.7621851,38.5073854 C65.7975041,38.6627662 65.875206,38.7767121 66,38.8492231 L66,39 L64.5837061,39 C64.5448552,38.8664876 64.5177773,38.7605985 64.5001177,38.6788797 C64.4683306,38.5096873 64.4494938,38.338193 64.4459619,38.1620948 L64.4377207,37.6038749 C64.4341888,37.2217533 64.3659053,36.9662383 64.2364022,36.8384807 C64.1057217,36.7107232 63.8620202,36.6474199 63.5041206,36.6474199 L62.2526489,36.6474199 L62.2526489,39 L61,39 L61,33 L63.935013,33 C64.3541323,33.0080568 64.6778903,33.0586994 64.9027549,33.1542298 Z" id="Fill-11" fill="#000000"></path>
                <mask id="mask-6" fill="white">
                    <use xlink:href="#path-5"></use>
                </mask>
                <g id="Clip-14"></g>
                <polygon id="Fill-13" fill="#000000" mask="url(#mask-6)" points="67 39 68 39 68 33 67 33"></polygon>
                <path d="M69.2031467,37.0974545 C69.2424803,37.3570909 69.3199907,37.5523636 69.4333642,37.68 C69.642758,37.9145455 69.9990745,38.0312727 70.5069412,38.0312727 C70.8111985,38.0312727 71.0576122,38.0007273 71.2473392,37.9385455 C71.6059695,37.8207273 71.7852846,37.6003636 71.7852846,37.2796364 C71.7852846,37.0909091 71.6973623,36.9458182 71.5215178,36.8432727 C71.3456733,36.7429091 71.0657103,36.6534545 70.6839426,36.576 L70.0314669,36.4418182 C69.3894031,36.3076364 68.947478,36.1625455 68.7080056,36.0054545 C68.3019435,35.7436364 68.0983341,35.3334545 68.0983341,34.7749091 C68.0983341,34.2654545 68.2973161,33.8421818 68.69528,33.5050909 C69.092087,33.168 69.6763073,33 70.4467839,33 C71.0911615,33 71.6383619,33.1592727 72.0941694,33.4767273 C72.54882,33.7941818 72.7859787,34.2556364 72.8079593,34.86 L71.5967145,34.86 C71.5747339,34.5174545 71.4127719,34.2741818 71.1096714,34.1301818 C70.9095326,34.0352727 70.6596483,33.9872727 70.3600185,33.9872727 C70.0268394,33.9872727 69.7607589,34.0494545 69.5629338,34.1727273 C69.3639519,34.296 69.2656178,34.4683636 69.2656178,34.6898182 C69.2656178,34.8927273 69.362795,35.0454545 69.5594632,35.1447273 C69.6844054,35.2123636 69.9504859,35.2909091 70.3600185,35.3803636 L71.4185562,35.616 C71.881305,35.7185455 72.2295234,35.856 72.4608977,36.0294545 C72.8206849,36.2967273 73,36.684 73,37.1901818 C73,37.7105455 72.7882925,38.1414545 72.3614068,38.484 C71.9356779,38.8276364 71.3341046,39 70.5566867,39 C69.7619158,39 69.137205,38.8309091 68.6825544,38.4927273 C68.2279037,38.1545455 68,37.6887273 68,37.0974545 L69.2031467,37.0974545 Z" id="Fill-15" fill="#000000" mask="url(#mask-6)"></path>
                <polygon id="Fill-16" fill="#000000" mask="url(#mask-6)" points="79 33 79 34.0623441 77.1522254 34.0623441 77.1522254 39 75.8560606 39 75.8560606 34.0623441 74 34.0623441 74 33"></polygon>
                <path d="M80.2160898,36.3585268 L80.2160898,37.9583733 L81.6964453,37.9583733 C81.9595416,37.9583733 82.1653414,37.9226933 82.3126754,37.8524842 C82.5792797,37.7224247 82.7137512,37.4726645 82.7137512,37.1032035 C82.7137512,36.791291 82.583957,36.5772108 82.3255379,36.459812 C82.1817119,36.3953578 81.9782507,36.3608287 81.7163237,36.3585268 L80.2160898,36.3585268 Z M80.2160898,34.0416267 L80.2160898,35.3652407 L81.6976146,35.3652407 C81.9618803,35.3652407 82.1770346,35.3157491 82.3419083,35.2167658 C82.506782,35.1177825 82.5898036,34.9416843 82.5898036,34.6896221 C82.5898036,34.4099367 82.4810571,34.2246307 82.2623948,34.1360061 C82.0741347,34.0738538 81.8344247,34.0416267 81.5420954,34.0416267 L80.2160898,34.0416267 Z M83.5252572,33.6387876 C83.712348,33.8943027 83.804724,34.2004604 83.804724,34.5549588 C83.804724,34.9209668 83.7111787,35.2156148 83.5229186,35.4389027 C83.4176801,35.5632074 83.2621609,35.6771533 83.0586997,35.7807405 C83.3685688,35.8912335 83.6036015,36.0684826 83.7626286,36.3101861 C83.9204864,36.5507385 84,36.8442356 84,37.1895262 C84,37.5440246 83.9087933,37.8639939 83.7287184,38.1459812 C83.612956,38.3324381 83.46913,38.4901209 83.2972404,38.6178784 C83.1019645,38.7640514 82.871609,38.8653367 82.6085126,38.9194322 C82.3430776,38.9735277 82.0565949,39 81.7467259,39 L79,39 L79,33 L81.9455098,33 C82.6891955,33.0103587 83.2153882,33.2232879 83.5252572,33.6387876 Z" id="Fill-17" fill="#000000" mask="url(#mask-6)"></path>
                <path d="M86.8114621,36.7325916 L88.1642365,36.7325916 L87.4969623,34.3719547 L86.8114621,36.7325916 Z M86.8843661,33 L88.1328473,33 L90,39 L88.8041717,39 L88.4558526,37.7661615 L86.5117456,37.7661615 L86.1543135,39 L85,39 L86.8843661,33 Z" id="Fill-18" fill="#000000" mask="url(#mask-6)"></path>
                <polygon id="Fill-19" fill="#000000" mask="url(#mask-6)" points="91 33 92.3508398 33 94.798202 37.1837713 94.798202 33 96 33 96 39 94.7106695 39 92.2006151 34.7425667 92.2006151 39 91 39"></polygon>
                <path d="M98.1984594,34.0416267 L98.1984594,37.9583733 L99.3380154,37.9583733 C99.9213865,37.9583733 100.328047,37.6660272 100.557997,37.0824861 C100.683734,36.7625168 100.747168,36.3815461 100.747168,35.9384232 C100.747168,35.3284097 100.652016,34.8588145 100.463978,34.5319394 C100.274807,34.2050643 99.8998641,34.0416267 99.3380154,34.0416267 L98.1984594,34.0416267 Z M100.46058,33.1300595 C100.87517,33.2681757 101.210467,33.5225398 101.467603,33.8908498 C101.672633,34.1901017 101.813095,34.5123729 101.88899,34.8599655 C101.962619,35.207558 102,35.539037 102,35.8532515 C102,36.6508728 101.843679,37.3264915 101.526507,37.8801074 C101.100589,38.6270861 100.44019,39 99.5464431,39 L97,39 L97,33 L99.5464431,33 C99.9134572,33.0057548 100.217037,33.0483407 100.46058,33.1300595 Z" id="Fill-20" fill="#000000" mask="url(#mask-6)"></path>
                <polygon id="Fill-21" fill="#000000" mask="url(#mask-6)" points="104 33 105.35084 33 107.798202 37.1837713 107.798202 33 109 33 109 39 107.71067 39 105.200615 34.7425667 105.200615 39 104 39"></polygon>
                <path d="M110,33 L111.322581,33 L111.322581,36.592371 C111.322581,36.9940165 111.37276,37.2868362 111.474313,37.4719521 C111.630824,37.8006731 111.973716,37.9644727 112.501792,37.9644727 C113.026284,37.9644727 113.367981,37.8006731 113.524492,37.4719521 C113.626045,37.2868362 113.676225,36.9940165 113.676225,36.592371 L113.676225,33 L115,33 L115,36.5957367 C115,37.2172775 114.897252,37.7008227 114.691756,38.0474944 C114.308244,38.6824981 113.57945,39 112.501792,39 C111.424134,39 110.692951,38.6824981 110.308244,38.0474944 C110.102748,37.7008227 110,37.2172775 110,36.5957367 L110,33 Z" id="Fill-22" fill="#000000" mask="url(#mask-6)"></path>
                <path d="M120.134814,33 L122,33 L122,39 L120.792625,39 L120.792625,34.9416843 C120.792625,34.8254364 120.793814,34.6619988 120.797383,34.4513716 C120.799762,34.2407443 120.800952,34.0784577 120.800952,33.9645118 L119.625694,39 L118.367169,39 L117.199048,33.9645118 C117.199048,34.0784577 117.200238,34.2407443 117.202617,34.4513716 C117.206186,34.6619988 117.207375,34.8254364 117.207375,34.9416843 L117.207375,39 L116,39 L116,33 L117.885408,33 L119.015464,37.7178208 L120.134814,33 Z" id="Fill-23" fill="#000000" mask="url(#mask-6)"></path>
                <path d="M124.21609,36.3585268 L124.21609,37.9583733 L125.696445,37.9583733 C125.959542,37.9583733 126.166511,37.9226933 126.313845,37.8524842 C126.57928,37.7224247 126.713751,37.4726645 126.713751,37.1032035 C126.713751,36.791291 126.583957,36.5772108 126.325538,36.459812 C126.181712,36.3953578 125.978251,36.3608287 125.716324,36.3585268 L124.21609,36.3585268 Z M124.21609,34.0416267 L124.21609,35.3652407 L125.697615,35.3652407 C125.96188,35.3652407 126.177035,35.3157491 126.341908,35.2167658 C126.506782,35.1177825 126.589804,34.9416843 126.589804,34.6896221 C126.589804,34.4099367 126.481057,34.2246307 126.262395,34.1360061 C126.074135,34.0738538 125.834425,34.0416267 125.542095,34.0416267 L124.21609,34.0416267 Z M127.526427,33.6387876 C127.712348,33.8943027 127.805893,34.2004604 127.805893,34.5549588 C127.805893,34.9209668 127.711179,35.2156148 127.522919,35.4389027 C127.41768,35.5632074 127.26333,35.6771533 127.0587,35.7807405 C127.369738,35.8912335 127.603601,36.0684826 127.762629,36.3101861 C127.920486,36.5507385 128,36.8442356 128,37.1895262 C128,37.5440246 127.909963,37.8639939 127.728718,38.1459812 C127.612956,38.3324381 127.46913,38.4901209 127.29724,38.6178784 C127.103134,38.7640514 126.872778,38.8653367 126.608513,38.9194322 C126.343078,38.9735277 126.056595,39 125.747895,39 L123,39 L123,33 L125.94551,33 C126.689196,33.0103587 127.215388,33.2232879 127.526427,33.6387876 Z" id="Fill-24" fill="#000000" mask="url(#mask-6)"></path>
                <polygon id="Fill-25" fill="#000000" mask="url(#mask-6)" points="132.871392 34.0623441 130.077468 34.0623441 130.077468 35.3364665 132.641519 35.3364665 132.641519 36.3780932 130.077468 36.3780932 130.077468 37.9215423 133 37.9215423 133 39 129 39 129 33 132.871392 33"></polygon>
                <path d="M135.252354,34.0416267 L135.252354,35.6541339 L136.633004,35.6541339 C136.906073,35.6541339 137.112053,35.6219068 137.249765,35.5563016 C137.492232,35.4423556 137.613465,35.2167658 137.613465,34.8806829 C137.613465,34.5169768 137.495763,34.2729714 137.261535,34.1475158 C137.129708,34.0773067 136.931968,34.0416267 136.668315,34.0416267 L135.252354,34.0416267 Z M137.903013,33.1542298 C138.129002,33.2497602 138.31968,33.3890274 138.477401,33.5731824 C138.608051,33.7262613 138.710452,33.8943027 138.785782,34.0784577 C138.861111,34.2626127 138.899953,34.47324 138.899953,34.7091886 C138.899953,34.9946288 138.8258,35.2743142 138.678672,35.5505467 C138.531544,35.8256282 138.289077,36.020142 137.950094,36.1340879 C138.233757,36.2457318 138.433851,36.4034145 138.552731,36.608287 C138.669256,36.8131594 138.729284,37.1262229 138.729284,37.5463265 L138.729284,37.9503165 C138.729284,38.2242471 138.739878,38.409553 138.762241,38.5073854 C138.797552,38.6627662 138.875235,38.7767121 139,38.8492231 L139,39 L137.58404,39 C137.545198,38.8664876 137.518126,38.7605985 137.500471,38.6788797 C137.467514,38.5096873 137.449859,38.338193 137.446328,38.1620948 L137.438089,37.6038749 C137.43338,37.2217533 137.36629,36.9662383 137.23564,36.8384807 C137.104991,36.7107232 136.862524,36.6474199 136.504708,36.6474199 L135.252354,36.6474199 L135.252354,39 L134,39 L134,33 L136.935499,33 C137.35452,33.0080568 137.677024,33.0586994 137.903013,33.1542298 Z" id="Fill-26" fill="#000000" mask="url(#mask-6)"></path>
                <polygon id="Fill-27" fill="#000000" mask="url(#mask-6)" points="56.8579621 44 58.5044111 49.1096998 60.1310101 44 61 44 58.909131 50 58.0864579 50 56 44"></polygon>
                <polygon id="Fill-28" fill="#000000" mask="url(#mask-6)" points="62 44 65.9445462 44 65.9445462 44.7355658 62.7177609 44.7355658 62.7177609 46.556582 65.6997123 46.556582 65.6997123 47.2505774 62.7177609 47.2505774 62.7177609 49.2852194 66 49.2852194 66 50 62 50"></polygon>
                <path d="M69.6957547,46.7487969 C70.0731132,46.7487969 70.3726415,46.6725698 70.5943396,46.5201155 C70.8136792,46.3676612 70.9245283,46.0927815 70.9245283,45.6943215 C70.9245283,45.2669875 70.7700472,44.9759384 70.4610849,44.8211742 C70.2971698,44.7391723 70.0766509,44.6987488 69.8007075,44.6987488 L67.8290094,44.6987488 L67.8290094,46.7487969 L69.6957547,46.7487969 Z M67,44 L69.7841981,44 C70.2429245,44 70.6214623,44.0669875 70.9186321,44.1998075 C71.4846698,44.4562079 71.7665094,44.9285852 71.7665094,45.6180943 C71.7665094,45.9772859 71.6910377,46.2706449 71.5389151,46.4993263 C71.3879717,46.7280077 71.1757075,46.9128008 70.9033019,47.0513956 C71.1426887,47.146102 71.3231132,47.2719923 71.4433962,47.4267565 C71.5648585,47.5826756 71.6320755,47.8344562 71.6450472,48.1832531 L71.6757075,48.987103 C71.6839623,49.2157844 71.7028302,49.386718 71.7334906,49.4975938 C71.7841981,49.6881617 71.8726415,49.8105871 72,49.866025 L72,50 L70.9823113,50 C70.9540094,49.9491819 70.932783,49.8821944 70.9162736,49.8001925 C70.8997642,49.7181906 70.8856132,49.5611165 70.8738208,49.3266603 L70.8242925,48.3253128 C70.8042453,47.9337825 70.6603774,47.6704524 70.3903302,47.5376323 C70.2370283,47.4637151 69.995283,47.4267565 69.6650943,47.4267565 L67.8290094,47.4267565 L67.8290094,50 L67,50 L67,44 Z" id="Fill-29" fill="#000000" mask="url(#mask-6)"></path>
                <polygon id="Fill-30" fill="#000000" mask="url(#mask-6)" points="73.1445 50 73.8555 50 73.8555 44 73.1445 44"></polygon>
                <polygon id="Fill-31" fill="#000000" mask="url(#mask-6)" points="75 44 79 44 79 44.7355658 75.7813541 44.7355658 75.7813541 46.556582 78.6115427 46.556582 78.6115427 47.2713626 75.7813541 47.2713626 75.7813541 50 75 50"></polygon>
                <polygon id="Fill-32" fill="#000000" mask="url(#mask-6)" points="80.1445 50 80.8555 50 80.8555 44 80.1445 44"></polygon>
                <path d="M86.2897914,44.569863 C86.6827662,44.950137 86.9023052,45.3819178 86.946213,45.8652055 L86.1920966,45.8652055 C86.1086718,45.4980822 85.9418222,45.2076712 85.6904501,44.9928767 C85.4412733,44.7780822 85.0889133,44.6706849 84.636663,44.6706849 C84.0845225,44.6706849 83.6399561,44.8679452 83.2996707,45.2624658 C82.9615807,45.6569863 82.791438,46.2608219 82.791438,47.0761644 C82.791438,47.7435616 82.9440176,48.2849315 83.2502744,48.6991781 C83.557629,49.1145205 84.01427,49.3216438 84.6212953,49.3216438 C85.1811196,49.3216438 85.6070252,49.1035616 85.9001098,48.6673973 C86.0548847,48.4372603 86.1712404,48.1347945 86.2469813,47.76 L87,47.76 C86.9330406,48.3594521 86.7135016,48.8624658 86.3402854,49.2679452 C85.8924259,49.7556164 85.2886937,50 84.5290889,50 C83.8737651,50 83.32382,49.7994521 82.8792536,49.3994521 C82.2919868,48.8690411 82,48.050411 82,46.9446575 C82,46.1030137 82.219539,45.4147945 82.6586169,44.8767123 C83.1350165,44.2926027 83.791438,44 84.6278814,44 C85.3424808,44 85.895719,44.189589 86.2897914,44.569863" id="Fill-33" fill="#000000" mask="url(#mask-6)"></path>
                <path d="M90.3685573,47.5410972 L89.5059306,44.8904716 L88.6098771,47.5410972 L90.3685573,47.5410972 Z M89.1102006,44 L89.9663576,44 L92,50 L91.1686435,50 L90.5831356,48.2028874 L88.3855941,48.2028874 L87.7785206,50 L87,50 L89.1102006,44 Z" id="Fill-34" fill="#000000" mask="url(#mask-6)"></path>
                <polygon id="Fill-35" fill="#000000" mask="url(#mask-6)" points="97 44 97 44.7147806 94.9219084 44.7147806 94.9219084 50 94.0780916 50 94.0780916 44.7147806 92 44.7147806 92 44"></polygon>
                <polygon id="Fill-36" fill="#000000" mask="url(#mask-6)" points="97.1445 50 97.8555 50 97.8555 44 97.1445 44"></polygon>
                <path d="M103.652191,48.5866278 C103.980261,48.1002004 104.144887,47.5405356 104.144887,46.9087265 C104.144887,46.2408453 103.955389,45.7030424 103.577576,45.2953179 C103.198579,44.8875934 102.682195,44.6842776 102.024872,44.6842776 C101.388867,44.6842776 100.86893,44.8865003 100.46743,45.2898524 C100.064745,45.6942977 99.8645874,46.2889415 99.8645874,47.0759701 C99.8645874,47.7044999 100.036321,48.2357442 100.380971,48.6675169 C100.725622,49.1003826 101.285827,49.3157224 102.058034,49.3157224 C102.792341,49.3157224 103.325306,49.0730552 103.652191,48.5866278 M104.387683,44.9662962 C104.796289,45.4691201 105,46.1118601 105,46.8956094 C105,47.7438513 104.765495,48.4488978 104.300039,49.0107488 C103.752862,49.6698852 102.972365,50 101.957363,50 C101.012238,50 100.267272,49.7114228 99.7260166,49.1342685 C99.2416107,48.577883 99,47.8739297 99,47.0235015 C99,46.2550556 99.2072641,45.5981053 99.6217923,45.0515577 C100.151204,44.3508836 100.936439,44 101.975128,44 C103.061192,44 103.866561,44.3224631 104.387683,44.9662962" id="Fill-37" fill="#000000" mask="url(#mask-6)"></path>
                <polygon id="Fill-38" fill="#000000" mask="url(#mask-6)" points="106 44 107.012952 44 110.178886 48.8475751 110.178886 44 111 44 111 50 110.03348 50 106.821114 45.1581986 106.821114 50 106 50"></polygon>
                <path d="M118.289791,44.569863 C118.683864,44.950137 118.903403,45.3819178 118.946213,45.8652055 L118.193194,45.8652055 C118.108672,45.4980822 117.94292,45.2076712 117.691548,44.9928767 C117.441273,44.7780822 117.090011,44.6706849 116.637761,44.6706849 C116.08562,44.6706849 115.639956,44.8679452 115.300768,45.2624658 C114.961581,45.6569863 114.791438,46.2608219 114.791438,47.0761644 C114.791438,47.7435616 114.945115,48.2849315 115.251372,48.6991781 C115.558727,49.1145205 116.015368,49.3216438 116.622393,49.3216438 C117.182217,49.3216438 117.608123,49.1035616 117.901207,48.6673973 C118.054885,48.4372603 118.17124,48.1347945 118.246981,47.76 L119,47.76 C118.934138,48.3594521 118.714599,48.8624658 118.340285,49.2679452 C117.893524,49.7556164 117.288694,50 116.529089,50 C115.873765,50 115.32382,49.7994521 114.879254,49.3994521 C114.291987,48.8690411 114,48.050411 114,46.9446575 C114,46.1030137 114.219539,45.4147945 114.659715,44.8767123 C115.136114,44.2926027 115.792536,44 116.627881,44 C117.342481,44 117.896817,44.189589 118.289791,44.569863" id="Fill-39" fill="#000000" mask="url(#mask-6)"></path>
                <path d="M123.653375,48.5866278 C123.980261,48.1002004 124.144887,47.5405356 124.144887,46.9087265 C124.144887,46.2408453 123.956573,45.7030424 123.57876,45.2953179 C123.198579,44.8875934 122.682195,44.6842776 122.026056,44.6842776 C121.388867,44.6842776 120.86893,44.8865003 120.46743,45.2898524 C120.064745,45.6942977 119.864587,46.2889415 119.864587,47.0759701 C119.864587,47.7044999 120.036321,48.2357442 120.380971,48.6675169 C120.725622,49.1003826 121.285827,49.3157224 122.059218,49.3157224 C122.793525,49.3157224 123.325306,49.0730552 123.653375,48.5866278 M124.387683,44.9662962 C124.796289,45.4691201 125,46.1118601 125,46.8956094 C125,47.7438513 124.765495,48.4488978 124.300039,49.0107488 C123.752862,49.6698852 122.972365,50 121.958547,50 C121.012238,50 120.267272,49.7114228 119.726017,49.1342685 C119.241611,48.577883 119,47.8739297 119,47.0235015 C119,46.2550556 119.207264,45.5981053 119.621792,45.0515577 C120.151204,44.3508836 120.936439,44 121.975128,44 C123.061192,44 123.866561,44.3224631 124.387683,44.9662962" id="Fill-40" fill="#000000" mask="url(#mask-6)"></path>
                <path d="M128.287535,49.3060046 C128.561379,49.3060046 128.788008,49.2771363 128.965061,49.2193995 C129.280217,49.113164 129.539896,48.9099307 129.739377,48.6073903 C129.901086,48.3648961 130.016761,48.0554273 130.086402,47.6755196 C130.128895,47.4503464 130.148961,47.2401848 130.148961,47.0473441 C130.148961,46.3036952 130.001416,45.7263279 129.705146,45.3152425 C129.410057,44.904157 128.935552,44.6986143 128.279273,44.6986143 L126.838055,44.6986143 L126.838055,49.3060046 L128.287535,49.3060046 Z M126,44 L128.450425,44 C129.282578,44 129.928234,44.2933025 130.386213,44.8787529 C130.795798,45.4076212 131,46.0831409 131,46.908776 C131,47.5461894 130.879603,48.1212471 130.63763,48.6362587 C130.212701,49.5461894 129.480878,50 128.442162,50 L126,50 L126,44 Z" id="Fill-41" fill="#000000" mask="url(#mask-6)"></path>
                <polygon id="Fill-42" fill="#000000" mask="url(#mask-6)" points="132 44 135.945592 44 135.945592 44.7355658 132.717761 44.7355658 132.717761 46.556582 135.700759 46.556582 135.700759 47.2505774 132.717761 47.2505774 132.717761 49.2852194 136 49.2852194 136 50 132 50"></polygon>
            </g>
        </g>
    </g>
</svg>